<svg width="323" height="249" viewBox="0 0 323 249" fill="none" xmlns="http://www.w3.org/2000/svg">
<circle cx="150.486" cy="140.316" r="108.684" fill="#FF6C63" fill-opacity="0.9"/>
<rect x="83.6326" y="88.7601" width="134.284" height="103.111" rx="8" fill="white"/>
<rect x="90.8223" y="95.9539" width="119.897" height="38.3669" rx="4" fill="#40BBD6"/>
<rect x="90.8223" y="107.944" width="119.897" height="38.3668" rx="4" fill="#EDD555"/>
<rect x="90.8223" y="119.933" width="119.897" height="38.3669" rx="4" fill="#9BCF68"/>
<rect x="90.8223" y="131.923" width="119.897" height="38.3668" rx="4" fill="#FF6C63"/>
<path d="M150.771 153.504C157.392 153.504 162.76 148.136 162.76 141.514C162.76 139.116 217.913 141.514 217.913 141.514V172.687C217.913 183.282 217.717 191.871 207.122 191.871H93.2205C82.6258 191.871 83.6288 183.282 83.6288 172.687V141.514C83.6288 141.514 138.781 139.117 138.781 141.514C138.781 148.136 144.149 153.504 150.771 153.504Z" fill="white"/>
<path d="M245.017 24.8633C249.158 24.3568 252.844 26.632 253.249 29.9451C253.655 33.2581 250.626 36.3545 246.484 36.861C242.343 37.3675 238.657 35.0923 238.252 31.7792C237.847 28.4662 240.875 25.3698 245.017 24.8633Z" fill="#9BCF68"/>
<path d="M270.601 26.2532C266.571 25.1734 262.604 26.9117 261.74 30.1357C260.876 33.3597 263.443 36.8487 267.473 37.9284C271.503 39.0082 275.47 37.27 276.334 34.0459C277.198 30.8219 274.631 27.333 270.601 26.2532Z" fill="#9BCF68"/>
<path d="M292.024 37.4588C288.69 34.9494 284.361 35.0769 282.353 37.7435C280.346 40.41 281.421 44.6059 284.754 47.1153C288.087 49.6247 292.417 49.4972 294.424 46.8306C296.432 44.1641 295.357 39.9682 292.024 37.4588Z" fill="#9BCF68"/>
<path d="M292.024 37.4588C288.69 34.9494 284.361 35.0769 282.353 37.7435C280.346 40.41 281.421 44.6059 284.754 47.1153C288.087 49.6247 292.417 49.4972 294.424 46.8306C296.432 44.1641 295.357 39.9682 292.024 37.4588Z" fill="#9BCF68"/>
<path d="M306.578 56.2124C304.77 52.4518 300.866 50.5753 297.858 52.021C294.85 53.4668 293.876 57.6873 295.683 61.4479C297.491 65.2084 301.394 67.0849 304.403 65.6392C307.411 64.1934 308.385 59.9729 306.578 56.2124Z" fill="#9BCF68"/>
<path d="M223.5 33.9517C226.945 31.5986 231.264 31.9255 233.147 34.6817C235.029 37.438 233.762 41.5799 230.317 43.933C226.871 46.286 222.552 45.9592 220.67 43.203C218.787 40.4467 220.054 36.3048 223.5 33.9517Z" fill="#9BCF68"/>
<path d="M311.311 80.5855C311.634 76.4257 309.198 72.8442 305.87 72.5859C302.543 72.3276 299.583 75.4904 299.26 79.6502C298.938 83.81 301.374 87.3916 304.701 87.6498C308.029 87.9081 310.989 84.7453 311.311 80.5855Z" fill="#9BCF68"/>
<path d="M206.661 52.5446C208.462 48.7808 212.362 46.8971 215.373 48.3373C218.384 49.7775 219.366 53.9962 217.565 57.7601C215.765 61.5239 211.865 63.4076 208.853 61.9674C205.842 60.5272 204.861 56.3085 206.661 52.5446Z" fill="#9BCF68"/>
<path d="M304.994 80.3218C307.61 81.0229 308.784 85.1264 307.616 89.4872C306.447 93.848 303.379 96.8148 300.762 96.1137C298.146 95.4126 296.972 91.3091 298.14 86.9483C299.309 82.5875 302.377 79.6207 304.994 80.3218Z" fill="#E76666"/>
<path d="M301.095 61.2549C298.443 61.8085 297.041 65.8398 297.964 70.2592C298.887 74.6786 301.784 77.8125 304.436 77.2589C307.087 76.7054 308.489 72.674 307.566 68.2546C306.644 63.8352 303.746 60.7014 301.095 61.2549Z" fill="#E76666"/>
<path d="M289.762 44.6613C287.597 46.2898 288.043 50.5346 290.757 54.1422C293.471 57.7499 297.426 59.3543 299.591 57.7258C301.755 56.0973 301.31 51.8525 298.596 48.2449C295.881 44.6372 291.926 43.0328 289.762 44.6613Z" fill="#E76666"/>
<path d="M272.728 34.3173C271.473 36.7181 273.7 40.3593 277.701 42.4501C281.703 44.5409 285.963 44.2896 287.218 41.8888C288.472 39.488 286.245 35.8469 282.244 33.7561C278.243 31.6653 273.982 31.9165 272.728 34.3173Z" fill="#E76666"/>
<path d="M262.873 31.6768C262.759 34.3832 259.01 36.4231 254.499 36.2332C249.988 36.0432 246.424 33.6952 246.538 30.9888C246.652 28.2824 250.401 26.2425 254.912 26.4324C259.423 26.6224 262.987 28.9704 262.873 31.6768Z" fill="#E76666"/>
<path d="M242.979 32.1258C244.039 34.6184 241.531 38.0717 237.376 39.839C233.222 41.6062 228.994 41.0181 227.934 38.5255C226.874 36.0329 229.382 32.5796 233.536 30.8123C237.691 29.0451 241.918 29.6331 242.979 32.1258Z" fill="#E76666"/>
<path d="M224.515 40.7356C226.535 42.5408 225.733 46.7329 222.725 50.0989C219.716 53.4649 215.64 54.7302 213.62 52.925C211.6 51.1198 212.402 46.9277 215.411 43.5617C218.42 40.1957 222.496 38.9304 224.515 40.7356Z" fill="#E76666"/>
<path d="M211.821 55.3563C214.438 56.0574 215.611 60.1609 214.443 64.5217C213.275 68.8825 210.206 71.8493 207.59 71.1482C204.973 70.4471 203.799 66.3436 204.968 61.9828C206.136 57.622 209.205 54.6552 211.821 55.3563Z" fill="#E76666"/>
<path d="M301.753 94.6595C299.913 98.0672 295.976 99.909 292.145 98.8825L213.668 77.8546C209.837 76.8281 207.349 73.2647 207.459 69.3936C207.696 67.9039 208.012 66.4135 208.411 64.927C215 40.3367 241.552 26.0858 267.717 33.0967C293.874 40.1054 309.741 65.7094 303.169 90.2926C303.166 90.3003 303.164 90.3079 303.162 90.3156C303.16 90.3233 303.158 90.331 303.156 90.3387C302.759 91.8171 302.29 93.2582 301.753 94.6595Z" fill="#F4CE6C"/>
<path d="M251.039 70.0704C250.655 75.0859 261.4 77.9651 263.575 73.4294" stroke="#393939" stroke-width="2" stroke-linecap="round"/>
<path d="M278.616 67.0507C277.953 69.5233 275.412 70.9907 272.939 70.3282C270.466 69.6656 268.999 67.124 269.662 64.6514C270.324 62.1787 272.866 60.7114 275.338 61.3739C277.811 62.0364 279.278 64.578 278.616 67.0507Z" fill="#393939"/>
<path d="M249.962 59.3729C249.3 61.8456 246.758 63.313 244.285 62.6504C241.813 61.9879 240.345 59.4463 241.008 56.9737C241.67 54.501 244.212 53.0336 246.685 53.6962C249.157 54.3587 250.625 56.9003 249.962 59.3729Z" fill="#393939"/>
<path d="M32.4641 9.7177L78.502 51.3891L51.4454 80.2133L13.5739 68.8714L32.4641 9.7177Z" fill="#A75BE2"/>
<path d="M43.7205 51.5232L78.5021 51.3891L51.4455 80.2133L13.574 68.8714L43.7205 51.5232Z" fill="#9651CC"/>
<path d="M32.464 9.71768L78.5019 51.3891L51.4453 80.2133L46.0378 60.1303L32.464 9.71768Z" fill="#8547B7" fill-opacity="0.5"/>
<path d="M61.5982 117.92L80.4884 58.7665L53.6525 88.4104L15.5603 76.2488L61.5982 117.92Z" fill="#A75BE2"/>
<path d="M61.5981 117.92L80.4883 58.7665L53.6525 88.4104L61.5981 117.92Z" fill="#8547B7" fill-opacity="0.5"/>
</svg>
