<svg width="184" height="270" viewBox="0 0 184 270" fill="none" xmlns="http://www.w3.org/2000/svg">
<path d="M2 0H93H184V185H2V0Z" fill="#FF6C63" fill-opacity="0.8"/>
<path d="M9 7H93H177V178H9V7Z" fill="#FF6C63" fill-opacity="0.9"/>
<rect x="19" y="16" width="147" height="152" fill="white"/>
<path d="M68.5849 66.1984C72.395 64.6612 76.4806 65.8858 77.7104 68.9337C78.9402 71.9817 76.8485 75.6987 73.0385 77.2359C69.2285 78.7731 65.1429 77.5485 63.9131 74.5005C62.6832 71.4526 64.7749 67.7356 68.5849 66.1984Z" fill="#9BCF68"/>
<path d="M93.2735 61C89.1651 61.0001 85.8345 63.6646 85.8345 66.9512C85.8345 70.2379 89.1651 72.9022 93.2735 72.9021C97.382 72.902 100.713 70.2376 100.713 66.9509C100.713 63.6642 97.382 60.9999 93.2735 61Z" fill="#9BCF68"/>
<path d="M116.505 66.1984C112.695 64.6612 108.61 65.8858 107.38 68.9337C106.15 71.9817 108.242 75.6987 112.052 77.2359C115.862 78.7731 119.947 77.5485 121.177 74.5005C122.407 71.4526 120.315 67.7356 116.505 66.1984Z" fill="#9BCF68"/>
<path d="M116.505 66.1984C112.695 64.6612 108.61 65.8858 107.38 68.9337C106.15 71.9817 108.242 75.6987 112.052 77.2359C115.862 78.7731 119.947 77.5485 121.177 74.5005C122.407 71.4526 120.315 67.7356 116.505 66.1984Z" fill="#9BCF68"/>
<path d="M135.128 80.3266C132.45 77.2103 128.259 76.4204 125.766 78.5623C123.273 80.7041 123.422 84.9666 126.1 88.0828C128.777 91.199 132.969 91.9889 135.462 89.8471C137.955 87.7053 137.805 83.4428 135.128 80.3266Z" fill="#9BCF68"/>
<path d="M50.4353 80.3266C53.1127 77.2103 57.3042 76.4204 59.7971 78.5623C62.2901 80.7041 62.1405 84.9666 59.4631 88.0828C56.7857 91.199 52.5943 91.9889 50.1013 89.8471C47.6084 87.7053 47.7579 83.4428 50.4353 80.3266Z" fill="#9BCF68"/>
<path d="M145.842 102.303C145.089 98.2637 141.859 95.4779 138.628 96.0804C135.397 96.6828 133.388 100.445 134.141 104.484C134.895 108.523 138.124 111.309 141.355 110.706C144.586 110.104 146.595 106.341 145.842 102.303Z" fill="#9BCF68"/>
<path d="M39.1582 102.303C39.9114 98.2637 43.1412 95.4779 46.3721 96.0804C49.6031 96.6828 51.6118 100.445 50.8587 104.484C50.1055 108.523 46.8757 111.309 43.6447 110.706C40.4137 110.104 38.405 106.341 39.1582 102.303Z" fill="#9BCF68"/>
<path d="M139.766 103.662C142.433 103.662 144.595 107.266 144.595 111.711C144.595 116.157 142.433 119.761 139.766 119.761C137.098 119.761 134.936 116.157 134.936 111.711C134.936 107.266 137.098 103.662 139.766 103.662Z" fill="#E76666"/>
<path d="M131.198 86.5202C128.817 87.7225 128.511 91.9141 130.515 95.8825C132.519 99.8508 136.073 102.093 138.454 100.891C140.835 99.6885 141.141 95.4969 139.137 91.5285C137.133 87.5602 133.579 85.3179 131.198 86.5202Z" fill="#E76666"/>
<path d="M116.19 73.6255C114.546 75.7261 116.051 79.65 119.552 82.3897C123.053 85.1293 127.224 85.6474 128.868 83.5468C130.512 81.4462 129.006 77.5223 125.505 74.7826C122.004 72.043 117.833 71.5249 116.19 73.6255Z" fill="#E76666"/>
<path d="M97.3514 68.1282C96.7701 70.7315 99.816 73.6272 104.155 74.5961C108.493 75.565 112.482 74.2401 113.063 71.6369C113.645 69.0337 110.599 66.1379 106.26 65.169C101.921 64.2001 97.9327 65.525 97.3514 68.1282Z" fill="#E76666"/>
<path d="M87.3051 68.1282C87.8864 70.7315 84.8405 73.6272 80.5018 74.5961C76.1631 75.565 72.1746 74.2401 71.5933 71.6369C71.0119 69.0337 74.0579 66.1379 78.3966 65.169C82.7353 64.2001 86.7238 65.525 87.3051 68.1282Z" fill="#E76666"/>
<path d="M68.4972 73.6255C70.141 75.7261 68.6355 79.65 65.1344 82.3897C61.6334 85.1293 57.4627 85.6474 55.8189 83.5468C54.1751 81.4462 55.6806 77.5223 59.1817 74.7826C62.6827 72.043 66.8534 71.5249 68.4972 73.6255Z" fill="#E76666"/>
<path d="M53.1305 86.5202C55.5115 87.7225 55.8173 91.9141 53.8134 95.8825C51.8096 99.8508 48.255 102.093 45.874 100.891C43.493 99.6885 43.1872 95.4969 45.191 91.5285C47.1949 87.5602 50.7495 85.3179 53.1305 86.5202Z" fill="#E76666"/>
<path d="M44.7825 103.662C47.4499 103.662 49.6122 107.266 49.6122 111.711C49.6122 116.157 47.4499 119.761 44.7825 119.761C42.1152 119.761 39.9529 116.157 39.9529 111.711C39.9529 107.266 42.1152 103.662 44.7825 103.662Z" fill="#E76666"/>
<path d="M140.337 118.125C139.456 121.835 136.181 124.59 132.275 124.59H52.2729C48.3675 124.59 45.0924 121.835 44.211 118.125C44.0566 116.648 43.9775 115.15 43.9775 113.634C43.9775 88.5661 65.6006 68.2444 92.2741 68.2444C118.939 68.2444 140.557 88.5534 140.571 113.611C140.571 113.619 140.571 113.626 140.571 113.634C140.571 113.642 140.571 113.65 140.571 113.658C140.57 115.165 140.491 116.655 140.337 118.125Z" fill="#F4CE6C"/>
<path d="M85.8345 107.662C86.7473 112.53 97.7012 112.53 98.6141 107.662" stroke="#393939" stroke-width="2.5" stroke-linecap="round"/>
<path d="M111.294 97.7617C111.294 100.282 109.251 102.326 106.73 102.326C104.209 102.326 102.166 100.282 102.166 97.7617C102.166 95.241 104.209 93.1976 106.73 93.1976C109.251 93.1976 111.294 95.241 111.294 97.7617Z" fill="#393939"/>
<path d="M82.0837 97.7617C82.0837 100.282 80.0403 102.326 77.5196 102.326C74.9989 102.326 72.9554 100.282 72.9554 97.7617C72.9554 95.241 74.9989 93.1976 77.5196 93.1976C80.0403 93.1976 82.0837 95.241 82.0837 97.7617Z" fill="#393939"/>
<path d="M1 219L43 207.5C43 207.5 72.5572 222.943 93 223C113.629 223.058 143.5 207.5 143.5 207.5C143.5 207.5 166.098 214.509 182.5 219" stroke="#E5443A" stroke-width="3"/>
<rect x="37" y="197" width="10" height="73" fill="#ECD348"/>
<rect x="139" y="197" width="10" height="73" fill="#ECD348"/>
<circle cx="42" cy="194" r="13" fill="#F4D52B"/>
<circle cx="144" cy="194" r="13" fill="#F4D52B"/>
</svg>
