<svg width="179" height="242" viewBox="0 0 179 242" fill="none" xmlns="http://www.w3.org/2000/svg">
<path d="M121.036 4.21906L143.349 24.4759L130.198 38.4455L111.826 32.9139L121.036 4.21906Z" fill="#A75BE2"/>
<path d="M126.469 24.5162L143.35 24.476L130.198 38.4455L111.826 32.914L126.469 24.5162Z" fill="#9651CC"/>
<path d="M121.036 4.21912L143.35 24.476L130.198 38.4455L127.588 28.695L121.036 4.21912Z" fill="#8547B7" fill-opacity="0.5"/>
<path d="M135.098 56.7527L144.308 28.0578L131.263 42.4253L112.785 36.4958L135.098 56.7527Z" fill="#A75BE2"/>
<path d="M135.098 56.7527L144.308 28.0578L131.263 42.4253L135.098 56.7527Z" fill="#8547B7" fill-opacity="0.5"/>
<path d="M90.784 111.96C93.0965 109.003 96.8887 108.106 99.2542 109.956C101.62 111.806 101.663 115.702 99.3502 118.659C97.0378 121.616 93.2456 122.513 90.8801 120.664C88.5146 118.814 88.4716 114.917 90.784 111.96Z" fill="#9BCF68"/>
<path d="M107.944 96.5685C104.693 98.4454 103.275 102.075 104.777 104.676C106.278 107.276 110.131 107.863 113.381 105.986C116.632 104.109 118.05 100.479 116.549 97.8787C115.047 95.2781 111.195 94.6915 107.944 96.5685Z" fill="#9BCF68"/>
<path d="M128.701 90.0687C124.984 90.5929 122.311 93.4283 122.73 96.4018C123.15 99.3753 126.503 101.361 130.22 100.837C133.937 100.312 136.61 97.477 136.191 94.5035C135.771 91.53 132.418 89.5445 128.701 90.0687Z" fill="#9BCF68"/>
<path d="M128.701 90.0687C124.984 90.5929 122.311 93.4283 122.73 96.4018C123.15 99.3753 126.503 101.361 130.22 100.837C133.937 100.312 136.61 97.477 136.191 94.5035C135.771 91.53 132.418 89.5445 128.701 90.0687Z" fill="#9BCF68"/>
<path d="M149.891 92.7404C146.348 91.4978 142.671 92.7876 141.677 95.6212C140.683 98.4548 142.748 101.759 146.291 103.002C149.833 104.244 153.51 102.955 154.504 100.121C155.498 97.2874 153.433 93.983 149.891 92.7404Z" fill="#9BCF68"/>
<path d="M82.8772 131.431C83.5722 127.742 86.5278 125.202 89.4788 125.758C92.4299 126.314 94.2588 129.755 93.5638 133.444C92.8689 137.132 89.9133 139.672 86.9623 139.116C84.0112 138.56 82.1823 135.119 82.8772 131.431Z" fill="#9BCF68"/>
<path d="M168.407 105.234C165.966 102.383 162.138 101.654 159.857 103.607C157.576 105.559 157.705 109.454 160.146 112.306C162.587 115.157 166.415 115.886 168.697 113.934C170.978 111.981 170.849 108.086 168.407 105.234Z" fill="#9BCF68"/>
<path d="M83.9935 153.971C82.7443 150.431 84.0273 146.751 86.8591 145.752C89.6908 144.753 92.999 146.812 94.2482 150.352C95.4973 153.892 94.2143 157.572 91.3825 158.571C88.5508 159.57 85.2426 157.511 83.9935 153.971Z" fill="#9BCF68"/>
<path d="M164.221 109.086C166.331 107.867 169.688 109.731 171.719 113.249C173.75 116.766 173.686 120.605 171.575 121.824C169.465 123.043 166.107 121.179 164.076 117.661C162.046 114.144 162.11 110.304 164.221 109.086Z" fill="#E76666"/>
<path d="M149.61 99.4364C148.276 101.475 149.949 104.932 153.347 107.156C156.745 109.381 160.582 109.531 161.917 107.492C163.252 105.453 161.579 101.997 158.181 99.7723C154.782 97.5477 150.945 97.3973 149.61 99.4364Z" fill="#E76666"/>
<path d="M131.844 96.0897C131.503 98.5027 134.487 100.92 138.509 101.488C142.531 102.057 146.068 100.561 146.409 98.148C146.75 95.735 143.766 93.318 139.744 92.7496C135.722 92.1812 132.185 93.6766 131.844 96.0897Z" fill="#E76666"/>
<path d="M114.427 100.346C115.156 102.671 118.889 103.571 122.765 102.356C126.641 101.14 129.191 98.2697 128.462 95.9444C127.733 93.619 124 92.7192 120.124 93.9346C116.249 95.15 113.698 98.0204 114.427 100.346Z" fill="#E76666"/>
<path d="M106.478 104.935C108.127 106.729 107.04 110.412 104.05 113.161C101.059 115.91 97.2981 116.683 95.6489 114.889C93.9996 113.095 95.0869 109.412 98.0773 106.663C101.068 103.915 104.829 103.141 106.478 104.935Z" fill="#E76666"/>
<path d="M94.1076 117.877C96.3679 118.788 96.9691 122.581 95.4505 126.348C93.9318 130.115 90.8684 132.43 88.6081 131.519C86.3478 130.608 85.7465 126.815 87.2652 123.048C88.7838 119.281 91.8473 116.966 94.1076 117.877Z" fill="#E76666"/>
<path d="M87.8392 135.1C90.2725 134.964 92.4293 138.141 92.6566 142.196C92.8839 146.251 91.0956 149.649 88.6624 149.786C86.2292 149.922 84.0724 146.745 83.8451 142.69C83.6177 138.634 85.406 135.236 87.8392 135.1Z" fill="#E76666"/>
<path d="M89.0647 152.477C91.1752 151.258 94.5325 153.122 96.5634 156.64C98.5943 160.157 98.5297 163.997 96.4192 165.215C94.3086 166.434 90.9513 164.57 88.9204 161.053C86.8896 157.535 86.9541 153.696 89.0647 152.477Z" fill="#E76666"/>
<path d="M171.472 120.158C172.469 123.497 171.136 127.173 168.046 128.957L104.744 165.504C101.654 167.289 97.8036 166.605 95.4112 164.072C94.6142 162.973 93.8673 161.824 93.175 160.625C81.7231 140.79 89.5488 114.832 110.654 102.647C131.753 90.4652 158.136 96.6591 169.594 116.48C169.598 116.486 169.601 116.492 169.605 116.498C169.608 116.504 169.612 116.511 169.615 116.517C170.303 117.71 170.922 118.925 171.472 120.158Z" fill="#F4CE6C"/>
<path d="M123.486 136.824C126.433 140.259 135.1 135.255 133.598 130.986" stroke="#393939" stroke-width="1.5" stroke-linecap="round"/>
<path d="M138.997 117.424C140.149 119.418 139.465 121.969 137.471 123.12C135.476 124.272 132.926 123.588 131.774 121.594C130.623 119.599 131.306 117.049 133.301 115.897C135.295 114.746 137.846 115.429 138.997 117.424Z" fill="#393939"/>
<path d="M115.884 130.768C117.036 132.763 116.352 135.313 114.358 136.465C112.363 137.616 109.813 136.933 108.661 134.938C107.51 132.944 108.193 130.393 110.188 129.242C112.182 128.09 114.733 128.774 115.884 130.768Z" fill="#393939"/>
<path d="M171.5 203C171.5 210.5 164 214.5 115.5 242C105.409 242 86.5001 242 69.0001 242C52.5001 236.5 40.0001 231.5 38.0001 230C37 213 37 189.3 37 182C62.5 182 66.0206 193.326 78 194.5C103.5 197 119.5 195.5 115.5 215.5C120.152 214.654 128.856 210.792 138.5 205.5C155.5 196.172 168.5 190 171.5 203Z" fill="#FCDDCF"/>
<path d="M17 173C19.9999 171.125 36 171 38 173C40 175 40 238 38 240C36 242 18.4999 242 17 240C15.5 238 14 174.875 17 173Z" fill="#FF6C63"/>
<path d="M89.0002 212C89.5 211 116 212 116 212L115.5 215.5C115.5 215.5 89.5002 216.5 89.0002 215.5C88.5002 214.5 88.3892 213.223 89.0002 212Z" fill="#FACBBF"/>
<path d="M91.5763 72.7104C84.768 84.5027 58.5191 92.8928 38.716 81.4594C18.9128 70.0261 13.0544 43.0989 19.8627 31.3065C19.8627 31.3065 40.1672 33.2123 59.9704 44.6457C79.7735 56.0791 91.5763 72.7104 91.5763 72.7104Z" fill="#A8A8A8"/>
<path d="M91.5763 72.7104C89.2286 76.7767 71.0269 71.2286 51.2238 59.7953C31.4206 48.3619 17.515 35.3728 19.8627 31.3065C22.2104 27.2402 41.3661 31.1358 61.1693 42.5691C80.9725 54.0025 93.924 68.644 91.5763 72.7104Z" fill="#A8A8A8"/>
<path d="M33.8835 65.9073C21.6638 73.5777 22.4986 74.0597 19.1595 72.1318C12.4815 68.2763 17.9768 62.6137 21.0295 47.6873C21.0295 47.6873 23.0225 50.8014 29.3616 54.4613C35.7007 58.1211 33.8835 65.9073 33.8835 65.9073Z" fill="#A8A8A8"/>
<path d="M54.6008 77.8684C54.0678 92.2862 53.233 91.8042 56.5721 93.732C63.2502 97.5876 65.4064 89.9972 76.8068 79.8903C76.8068 79.8903 73.1133 79.7213 66.7742 76.0614C60.4351 72.4016 54.6008 77.8684 54.6008 77.8684Z" fill="#A8A8A8"/>
<path d="M84.0332 67.3736C82.3898 70.22 69.4515 65.8268 53.1689 56.426C36.8863 47.0253 26.6126 38.017 28.2559 35.1706C29.0306 33.8288 35.7388 31.417 42.6203 34.6286C45.1853 35.8257 48.8013 39.4564 51.1139 40.6192C55.7588 42.9547 57.8981 39.5238 64.2726 43.2041C70.6472 46.8845 69.2987 49.1904 75.2963 53.4941C82.0801 58.362 86.1587 63.6922 84.0332 67.3736Z" fill="#FD554B"/>
<path d="M51.8955 78.8737C40.2392 88.9419 43.0068 90.5399 35.8567 86.4117C29.283 82.6162 31.4741 83.8815 34.3655 68.7528C34.3655 68.7528 39.1577 66.7201 45.2087 70.2136C51.2596 73.7071 51.8955 78.8737 51.8955 78.8737Z" fill="#A8A8A8"/>
<path d="M83.4387 48.0093C84.2878 47.7189 85.2618 48.0011 85.8055 48.717C86.592 49.7525 87.6952 51.2702 88.378 52.4882C89.0206 53.6347 89.6914 55.2305 90.1383 56.3602C90.4598 57.1727 90.1577 58.056 89.4213 58.5273L77.1805 66.3622C77.1805 66.3622 69.9556 64.1544 65.1747 61.3942C60.3938 58.6339 58.4284 56.5175 58.4284 56.5175L62.7498 55.0856L83.4387 48.0093Z" fill="#A8A8A8"/>
<circle cx="60.1281" cy="69.7151" r="4.32941" transform="rotate(30 60.1281 69.7151)" fill="#353E48"/>
<circle cx="38.4454" cy="57.1966" r="4.32941" transform="rotate(30 38.4454 57.1966)" fill="#353E48"/>
<path d="M41.5945 67.1244C40.392 70.5428 47.332 74.5496 49.6912 71.799" stroke="#353E48" stroke-width="2" stroke-linecap="round"/>
<circle cx="29.7834" cy="59.5341" r="0.667804" transform="rotate(30 29.7834 59.5341)" fill="#353E48"/>
<circle cx="27.2911" cy="61.1797" r="0.667804" transform="rotate(30 27.2911 61.1797)" fill="#353E48"/>
<circle cx="30.5166" cy="62.2709" r="0.667804" transform="rotate(30 30.5166 62.2709)" fill="#353E48"/>
<circle cx="63.3268" cy="78.9005" r="0.667804" transform="rotate(30 63.3268 78.9005)" fill="#353E48"/>
<circle cx="64.0601" cy="81.6372" r="0.667804" transform="rotate(30 64.0601 81.6372)" fill="#353E48"/>
<circle cx="64.9133" cy="57.4541" r="0.667804" transform="rotate(30 64.9133 57.4541)" fill="#353E48"/>
<circle cx="78.9722" cy="62.4866" r="0.667804" transform="rotate(30 78.9722 62.4866)" fill="#353E48"/>
<circle cx="81.8464" cy="49.4948" r="0.667804" transform="rotate(30 81.8464 49.4948)" fill="#353E48"/>
<circle cx="60.8345" cy="80.546" r="0.667804" transform="rotate(30 60.8345 80.546)" fill="#353E48"/>
</svg>
