<svg width="218" height="210" viewBox="0 0 218 210" fill="none" xmlns="http://www.w3.org/2000/svg">
<path d="M88.772 81.6621C92.4279 80.1871 96.157 81.4202 97.2467 84.1208C98.3364 86.8215 96.5073 90.2972 92.8514 91.7722C89.1956 93.2472 85.4664 92.0141 84.3767 89.3134C83.287 86.6128 85.1162 83.1371 88.772 81.6621ZM106.334 81.9512C106.334 79.039 109.331 76.5001 113.274 76.5C117.216 76.4999 120.213 79.0387 120.213 81.9509C120.213 84.8631 117.216 87.402 113.273 87.4021C109.331 87.4022 106.334 84.8634 106.334 81.9512ZM127.844 84.1208C128.933 81.4202 132.662 80.1871 136.318 81.6621C139.974 83.1371 141.803 86.6128 140.714 89.3134C139.624 92.0141 135.895 93.2472 132.239 91.7722C128.583 90.2972 126.754 86.8215 127.844 84.1208ZM146.092 93.9415C148.301 92.0437 152.179 92.6623 154.748 95.6524C157.317 98.6425 157.345 102.57 155.136 104.468C152.927 106.366 149.048 105.747 146.479 102.757C143.91 99.7668 143.883 95.8393 146.092 93.9415ZM70.8146 95.6524C73.3836 92.6623 77.2624 92.0437 79.4713 93.9415C81.6802 95.8393 81.653 99.7668 79.0839 102.757C76.5148 105.747 72.6361 106.366 70.4272 104.468C68.2183 102.57 68.2455 98.6425 70.8146 95.6524ZM158.72 111.572C161.582 111.038 164.628 113.519 165.35 117.394C166.073 121.27 164.126 124.681 161.264 125.215C158.401 125.749 155.356 123.268 154.633 119.392C153.91 115.517 155.857 112.106 158.72 111.572ZM59.6497 117.394C60.3724 113.519 63.4177 111.038 66.2805 111.572C69.1433 112.106 71.0898 115.517 70.3671 119.392C69.6444 123.268 66.5992 125.749 63.7363 125.215C60.8735 124.681 58.927 121.27 59.6497 117.394Z" fill="white" stroke="black"/>
<path d="M159.766 119.162C160.855 119.162 161.926 119.9 162.752 121.277C163.572 122.643 164.095 124.563 164.095 126.711C164.095 128.859 163.572 130.779 162.752 132.146C161.926 133.522 160.855 134.261 159.766 134.261C158.677 134.261 157.605 133.522 156.779 132.146C155.959 130.779 155.436 128.859 155.436 126.711C155.436 124.563 155.959 122.643 156.779 121.277C157.605 119.9 158.677 119.162 159.766 119.162ZM150.961 110.657C149.993 108.74 149.595 106.79 149.711 105.2C149.827 103.599 150.451 102.457 151.423 101.966C152.395 101.476 153.684 101.652 155.042 102.508C156.39 103.359 157.723 104.837 158.691 106.754C159.659 108.671 160.057 110.621 159.941 112.211C159.825 113.812 159.201 114.954 158.229 115.444C157.257 115.935 155.968 115.759 154.61 114.903C153.262 114.052 151.929 112.574 150.961 110.657ZM139.86 96.9959C138.169 95.6723 136.979 94.0768 136.408 92.5888C135.833 91.0901 135.912 89.7913 136.583 88.9337C137.254 88.076 138.496 87.6873 140.089 87.8852C141.671 88.0816 143.506 88.8528 145.197 90.1764C146.888 91.5 148.078 93.0955 148.649 94.5835C149.224 96.0823 149.145 97.381 148.474 98.2387C147.803 99.0963 146.561 99.485 144.968 99.2872C143.387 99.0907 141.552 98.3195 139.86 96.9959ZM124.264 89.1082C122.168 88.6401 120.408 87.7108 119.253 86.6127C118.089 85.5066 117.602 84.3001 117.839 83.2372C118.077 82.1744 119.031 81.2897 120.554 80.7836C122.067 80.2812 124.055 80.1889 126.151 80.657C128.247 81.1251 130.007 82.0544 131.162 83.1525C132.326 84.2586 132.813 85.4651 132.575 86.5279C132.338 87.5908 131.384 88.4755 129.86 88.9816C128.348 89.484 126.36 89.5762 124.264 89.1082ZM106.817 83.2372C107.054 84.3001 106.567 85.5066 105.404 86.6127C104.249 87.7108 102.489 88.6401 100.393 89.1082C98.2967 89.5762 96.3086 89.484 94.7961 88.9816C93.2727 88.4755 92.3186 87.5908 92.0813 86.5279C91.8439 85.4651 92.331 84.2586 93.4944 83.1525C94.6495 82.0544 96.4095 81.1251 98.5056 80.657C100.602 80.1889 102.59 80.2812 104.102 80.7836C105.626 81.2897 106.58 82.1744 106.817 83.2372ZM88.1035 88.9337C88.7746 89.7913 88.8534 91.0901 88.2783 92.5888C87.7074 94.0768 86.5177 95.6723 84.8263 96.9959C83.1349 98.3195 81.3001 99.0907 79.7186 99.2872C78.1255 99.485 76.8838 99.0963 76.2126 98.2387C75.5415 97.381 75.4627 96.0823 76.0378 94.5835C76.6087 93.0955 77.7984 91.5 79.4898 90.1764C81.1812 88.8528 83.016 88.0816 84.5975 87.8852C86.1906 87.6873 87.4323 88.076 88.1035 88.9337ZM72.9051 101.966C73.8773 102.457 74.5008 103.599 74.6176 105.2C74.7335 106.79 74.3352 108.74 73.3671 110.657C72.399 112.574 71.0663 114.052 69.7184 114.903C68.3606 115.759 67.0715 115.935 66.0993 115.444C65.1272 114.954 64.5036 113.812 64.3869 112.211C64.2709 110.621 64.6693 108.671 65.6374 106.754C66.6055 104.837 67.9382 103.359 69.2861 102.508C70.6438 101.652 71.933 101.476 72.9051 101.966ZM64.7825 119.162C65.8716 119.162 66.9429 119.9 67.7689 121.277C68.5888 122.643 69.1122 124.563 69.1122 126.711C69.1122 128.859 68.5888 130.779 67.7689 132.146C66.9429 133.522 65.8716 134.261 64.7825 134.261C63.6935 134.261 62.6221 133.522 61.7962 132.146C60.9762 130.779 60.4529 128.859 60.4529 126.711C60.4529 124.563 60.9762 122.643 61.7962 121.277C62.6221 119.9 63.6935 119.162 64.7825 119.162Z" fill="white" stroke="black"/>
<path d="M159.843 133.041C159.002 136.521 155.926 139.09 152.275 139.09H72.2729C68.6218 139.09 65.5464 136.521 64.7049 133.041C64.5545 131.591 64.4775 130.121 64.4775 128.634C64.4775 103.871 85.8471 83.7444 112.274 83.7444C138.693 83.7444 160.057 103.858 160.071 128.611V128.611V128.611V128.611V128.611V128.611V128.612V128.612V128.612V128.612V128.612V128.612V128.612V128.612V128.612V128.612V128.612V128.613V128.613V128.613V128.613V128.613V128.613V128.613V128.613V128.613V128.613V128.613V128.614V128.614V128.614V128.614V128.614V128.614V128.614V128.614V128.614V128.614V128.614V128.615V128.615V128.615V128.615V128.615V128.615V128.615V128.615V128.615V128.615V128.615V128.616V128.616V128.616V128.616V128.616V128.616V128.616V128.616V128.616V128.616V128.617V128.617V128.617V128.617V128.617V128.617V128.617V128.617V128.617V128.617V128.617V128.618V128.618V128.618V128.618V128.618V128.618V128.618V128.618V128.618V128.618V128.618V128.619V128.619V128.619V128.619V128.619V128.619V128.619V128.619V128.619V128.619V128.619V128.62V128.62V128.62V128.62V128.62V128.62V128.62V128.62V128.62V128.62V128.62V128.621V128.621V128.621V128.621V128.621V128.621V128.621V128.621V128.621V128.621V128.621V128.622V128.622V128.622V128.622V128.622V128.622V128.622V128.622V128.622V128.622V128.622V128.623V128.623V128.623V128.623V128.623V128.623V128.623V128.623V128.623V128.623V128.623V128.624V128.624V128.624V128.624V128.624V128.624V128.624V128.624V128.624V128.624V128.624V128.625V128.625V128.625V128.625V128.625V128.625V128.625V128.625V128.625V128.625V128.625V128.626V128.626V128.626V128.626V128.626V128.626V128.626V128.626V128.626V128.626V128.627V128.627V128.627V128.627V128.627V128.627V128.627V128.627V128.627V128.627V128.627V128.628V128.628V128.628V128.628V128.628V128.628V128.628V128.628V128.628V128.628V128.628V128.629V128.629V128.629V128.629V128.629V128.629V128.629V128.629V128.629V128.629V128.629V128.63V128.63V128.63V128.63V128.63V128.63V128.63V128.63V128.63V128.63V128.63V128.631V128.631V128.631V128.631V128.631V128.631V128.631V128.631V128.631V128.631V128.631V128.632V128.632V128.632V128.632V128.632V128.632V128.632V128.632V128.632V128.632V128.632V128.633V128.633V128.633V128.633V128.633V128.633V128.633V128.633V128.633V128.633V128.633V128.634V128.634V128.634V128.634V128.634V128.634V128.634V128.634V128.634V128.634V128.634V128.635V128.635V128.635V128.635V128.635V128.635V128.635V128.635V128.635V128.635V128.636V128.636V128.636V128.636V128.636V128.636V128.636V128.636V128.636V128.636V128.636V128.637V128.637V128.637V128.637V128.637V128.637V128.637V128.637V128.637V128.637V128.637V128.638V128.638V128.638V128.638V128.638V128.638V128.638V128.638V128.638V128.638V128.638V128.639V128.639V128.639V128.639V128.639V128.639V128.639V128.639V128.639V128.639V128.639V128.64V128.64V128.64V128.64V128.64V128.64V128.64V128.64V128.64V128.64V128.64V128.641V128.641V128.641V128.641V128.641V128.641V128.641V128.641V128.641V128.641V128.641V128.642V128.642V128.642V128.642V128.642V128.642V128.642V128.642V128.642V128.642V128.642V128.643V128.643V128.643V128.643V128.643V128.643V128.643V128.643V128.643V128.643V128.643V128.644V128.644V128.644V128.644V128.644V128.644V128.644V128.644V128.644V128.644V128.644V128.645V128.645V128.645V128.645V128.645V128.645V128.645V128.645V128.645V128.645V128.646V128.646V128.646V128.646V128.646V128.646V128.646V128.646V128.646V128.646V128.646V128.647V128.647V128.647V128.647V128.647V128.647V128.647V128.647V128.647V128.647V128.647V128.648V128.648V128.648V128.648V128.648V128.648V128.648V128.648V128.648V128.648V128.648V128.649V128.649V128.649V128.649V128.649V128.649V128.649V128.649V128.649V128.649V128.649V128.65V128.65V128.65V128.65V128.65V128.65V128.65V128.65V128.65V128.65V128.65V128.651V128.651V128.651V128.651V128.651V128.651V128.651V128.651V128.651V128.651V128.651V128.652V128.652V128.652V128.652V128.652V128.652V128.652V128.652V128.652V128.652V128.652V128.653V128.653V128.653V128.653V128.653V128.653V128.653V128.653V128.653V128.653V128.653V128.654V128.654V128.654V128.654V128.654V128.654V128.654V128.654V128.654V128.654V128.654V128.655V128.655V128.655V128.655V128.655V128.655V128.655V128.655V128.655V128.655V128.656V128.656V128.656V128.656V128.656V128.656V128.656V128.656V128.656V128.656V128.656V128.657V128.657V128.657V128.657V128.657V128.657V128.657V128.657V128.657V128.657V128.657C160.07 130.136 159.993 131.599 159.843 133.041Z" fill="white" stroke="black"/>
<path d="M105.834 122.662C106.747 127.53 117.701 127.53 118.614 122.662" stroke="#393939" stroke-width="2.5" stroke-linecap="round"/>
<path d="M131.294 112.762C131.294 115.282 129.251 117.326 126.73 117.326C124.209 117.326 122.166 115.282 122.166 112.762C122.166 110.241 124.209 108.198 126.73 108.198C129.251 108.198 131.294 110.241 131.294 112.762Z" fill="#393939"/>
<path d="M102.084 112.762C102.084 115.282 100.04 117.326 97.5196 117.326C94.9989 117.326 92.9554 115.282 92.9554 112.762C92.9554 110.241 94.9989 108.198 97.5196 108.198C100.04 108.198 102.084 110.241 102.084 112.762Z" fill="#393939"/>
<rect x="46.5" y="42.5" width="132" height="132" fill="#E4E4E4" fill-opacity="0.33" stroke="black"/>
<circle cx="55.5" cy="55.5" r="55" fill="#B6B6B6" fill-opacity="0.32" stroke="black"/>
<mask id="path-8-inside-1" fill="white">
<path fill-rule="evenodd" clip-rule="evenodd" d="M107 210L3 132V210H107ZM61 196.11L18 161.918V196.11H61Z"/>
</mask>
<path fill-rule="evenodd" clip-rule="evenodd" d="M107 210L3 132V210H107ZM61 196.11L18 161.918V196.11H61Z" fill="#E4E4E4"/>
<path d="M3 132L3.6 131.2L2 130V132H3ZM107 210V211H110L107.6 209.2L107 210ZM3 210H2V211H3V210ZM18 161.918L18.6224 161.135L17 159.845V161.918H18ZM61 196.11V197.11H63.8643L61.6224 195.327L61 196.11ZM18 196.11H17V197.11H18V196.11ZM2.4 132.8L106.4 210.8L107.6 209.2L3.6 131.2L2.4 132.8ZM4 210V132H2V210H4ZM107 209H3V211H107V209ZM17.3776 162.701L60.3776 196.892L61.6224 195.327L18.6224 161.135L17.3776 162.701ZM19 196.11V161.918H17V196.11H19ZM61 195.11H18V197.11H61V195.11Z" fill="black" mask="url(#path-8-inside-1)"/>
<rect x="124.5" y="147.5" width="93" height="20" fill="#DFDFDF" stroke="black"/>
<line x1="131.5" y1="147" x2="131.5" y2="152" stroke="black"/>
<line x1="141.5" y1="147" x2="141.5" y2="152" stroke="black"/>
<line x1="151.5" y1="147" x2="151.5" y2="152" stroke="black"/>
<line x1="161.5" y1="147" x2="161.5" y2="152" stroke="black"/>
<line x1="171.5" y1="147" x2="171.5" y2="152" stroke="black"/>
<line x1="181.5" y1="147" x2="181.5" y2="152" stroke="black"/>
<line x1="191.5" y1="147" x2="191.5" y2="152" stroke="black"/>
<line x1="201.5" y1="147" x2="201.5" y2="152" stroke="black"/>
<line x1="211.5" y1="147" x2="211.5" y2="152" stroke="black"/>
</svg>
