<svg width="174" height="145" viewBox="0 0 174 145" fill="none" xmlns="http://www.w3.org/2000/svg">
<path d="M82 66.4199C82 86.0702 63.6437 102 41 102C18.3563 102 0 86.0702 0 66.4199C0 46.7695 16.7905 29.7162 41 34.9596C65.6 31.2143 82 46.7695 82 66.4199Z" fill="#F65D53"/>
<path d="M142 30.2222C142 28.1358 143.592 26.4444 145.556 26.4444H170.444C172.408 26.4444 174 28.1358 174 30.2222V98.2222C174 100.309 172.408 102 170.444 102H145.556C143.592 102 142 100.309 142 98.2222V30.2222Z" fill="#F68453"/>
<path d="M154.696 1.01043C154.755 0.435485 155.212 0 155.757 0H160.243C160.788 0 161.245 0.435483 161.304 1.01043L163.204 19.5215C163.273 20.1921 162.779 20.7778 162.144 20.7778H153.856C153.221 20.7778 152.727 20.1921 152.796 19.5215L154.696 1.01043Z" fill="#F68453"/>
<path d="M145.556 20.0222C145.556 19.3963 146.033 18.8889 146.622 18.8889H169.378C169.967 18.8889 170.444 19.3963 170.444 20.0222V25.3111C170.444 25.937 169.967 26.4444 169.378 26.4444H146.622C146.033 26.4444 145.556 25.937 145.556 25.3111V20.0222Z" fill="#F68453"/>
<path d="M145.556 20.0222C145.556 19.3963 146.033 18.8889 146.622 18.8889H169.378C169.967 18.8889 170.444 19.3963 170.444 20.0222V25.3111C170.444 25.937 169.967 26.4444 169.378 26.4444H146.622C146.033 26.4444 145.556 25.937 145.556 25.3111V20.0222Z" fill="#F68453"/>
<path d="M162.791 58.35C165.159 60.8538 167.201 69.3346 160.095 72C164.89 66.2654 158.053 64.4077 158.38 60.45C157.563 61.3385 156.012 61.5808 155.863 67.3154C154.46 66.6692 154.46 65.2154 154.46 64.4077C153.806 65.2962 151.846 69.4962 155.113 72C149.526 69.6979 149.408 64.4077 150.621 62.0654C152.336 58.7538 155.603 56.9769 155.863 51C159.784 53.1808 161.811 57.3808 161.32 60.45C162.382 60.45 162.791 58.0274 162.791 58.35Z" fill="#F3D158"/>
<path d="M156 62.8216C156 83.2117 128.242 113.745 94 113.745C59.7584 113.745 32 83.2117 32 62.8216C32 62.8216 59.7583 50.0906 94 50.0906C128.242 50.0906 156 62.8216 156 62.8216Z" fill="#A8A8A8"/>
<path d="M156 62.8216C156 69.8526 128.242 76.2857 94 76.2857C59.7583 76.2857 32 69.8526 32 62.8216C32 55.7905 59.7583 46.5 94 46.5C128.242 46.5 156 55.7905 156 62.8216Z" fill="#A8A8A8"/>
<path d="M76.0889 97.195C65.9851 116.291 67.4285 116.291 61.6549 116.291C50.1079 116.291 52.9947 104.834 45.7777 83.191C45.7777 83.191 50.694 85.7372 61.6549 85.7372C72.6159 85.7372 76.0889 97.195 76.0889 97.195Z" fill="#A8A8A8"/>
<path d="M111.911 97.195C122.015 116.291 120.571 116.291 126.345 116.291C137.892 116.291 135.005 104.834 142.222 83.191C142.222 83.191 137.306 85.7372 126.345 85.7372C115.384 85.7372 111.911 97.195 111.911 97.195Z" fill="#A8A8A8"/>
<path d="M142.222 61.5484C142.222 66.4702 122.154 70.46 93.9999 70.46C65.8457 70.46 45.7777 66.4702 45.7777 61.5484C45.7777 59.2283 52.6712 51.078 64 50.0906C68.2225 49.7225 75.6302 51.7235 79.5 51.5C87.2723 51.051 87.4777 44.9999 98.5 45C109.522 45 109.5 49 120.5 50.0906C132.942 51.3242 142.222 55.1828 142.222 61.5484Z" fill="#FD554B"/>
<path d="M109.156 100.524C101.578 122.308 106.363 122.308 94 122.308C82.6332 122.308 86.4221 122.308 78.8445 100.524C78.8445 100.524 83.5372 94.3001 94 94.3001C104.463 94.3001 109.156 100.524 109.156 100.524Z" fill="#A8A8A8"/>
<path d="M127.448 36.3136C128.038 35.6375 129.021 35.3948 129.853 35.7366C131.619 36.4624 134.665 37.7748 136.712 38.9915C138.647 40.1418 141.069 42.0269 142.466 43.1523C143.146 43.7004 143.325 44.6152 142.923 45.3916L132.578 65.3676C132.578 65.3676 121.556 67.9139 113.289 67.9139C105.022 67.9139 100.889 66.6408 100.889 66.6408L105.421 61.5483L127.448 36.3136Z" fill="#A8A8A8"/>
<circle cx="112.975" cy="82.483" r="6.48305" fill="#353E48"/>
<circle cx="75.483" cy="82.483" r="6.48305" fill="#353E48"/>
<path d="M87 93C88 98.3333 100 98.3333 101 93" stroke="#353E48" stroke-width="2" stroke-linecap="round"/>
<circle cx="66" cy="92" r="1" fill="#353E48"/>
<circle cx="64" cy="96" r="1" fill="#353E48"/>
<circle cx="69" cy="95" r="1" fill="#353E48"/>
<circle cx="124" cy="92" r="1" fill="#353E48"/>
<circle cx="127" cy="95" r="1" fill="#353E48"/>
<circle cx="110" cy="63" r="1" fill="#353E48"/>
<circle cx="132" cy="59" r="1" fill="#353E48"/>
<circle cx="126" cy="40" r="1" fill="#353E48"/>
<circle cx="122" cy="96" r="1" fill="#353E48"/>
<path d="M160.533 115.429C154.726 129.908 114.586 133.944 105.564 127.067C97.8684 121.201 120.195 114.38 124.543 112.953C133.313 110.076 138.515 107.611 142.882 104.373C147.25 101.134 151.956 100.13 156.286 103.802C161.82 108.495 162.139 111.424 160.533 115.429Z" fill="#FD554B"/>
<path d="M160.873 110.968C158.89 112.376 158.334 109.581 156.725 107.332C155.116 105.082 153.365 104.138 155.348 102.729C157.331 101.321 159.427 102.458 161.036 104.708C162.645 106.958 162.855 109.559 160.873 110.968Z" fill="#8DC613"/>
<path d="M163.61 99.9129C163.427 99.0731 162.645 98.5193 161.865 98.6761C161.085 98.8329 160.601 99.6408 160.784 100.481L163.61 99.9129ZM158.536 104.11C157.79 104.386 157.424 105.266 157.719 106.074C158.013 106.882 158.856 107.314 159.602 107.037L158.536 104.11ZM162.197 100.197C160.784 100.481 160.784 100.48 160.784 100.479C160.784 100.479 160.784 100.478 160.784 100.477C160.783 100.476 160.783 100.475 160.783 100.475C160.783 100.473 160.782 100.471 160.782 100.47C160.781 100.467 160.781 100.465 160.781 100.464C160.78 100.462 160.781 100.463 160.781 100.467C160.783 100.476 160.787 100.497 160.791 100.529C160.8 100.592 160.812 100.697 160.818 100.833C160.831 101.107 160.817 101.48 160.72 101.876C160.543 102.598 160.063 103.544 158.536 104.11L159.602 107.037C162.056 106.127 163.139 104.385 163.531 102.787C163.719 102.024 163.741 101.329 163.718 100.826C163.706 100.573 163.683 100.361 163.661 100.206C163.65 100.128 163.639 100.064 163.63 100.015C163.626 99.99 163.622 99.969 163.618 99.952C163.617 99.9435 163.615 99.936 163.614 99.9295C163.613 99.9262 163.612 99.9232 163.612 99.9205C163.611 99.9191 163.611 99.9178 163.611 99.9165C163.611 99.9159 163.611 99.915 163.611 99.9147C163.61 99.9138 163.61 99.9129 162.197 100.197Z" fill="#8DC613"/>
<path d="M40.6875 33.8039C37.8751 27.1881 25.5 26 21 30.5C27.5 30.5 35 31 39 35C34 32.5 26.0625 33.295 22.6875 39.402C28.3125 36.3485 36.1875 36.0092 40.6875 37.3663C47.1595 37.0872 53.0625 40.9287 55.3125 45C55.3125 41.4376 54.1875 36.8574 45.1875 35.8396C47.4375 34.8218 53.1154 35.5394 57 36.8574C57 33.8039 49.125 30.2415 41.8124 33.8039C41.9999 31.9379 47.6956 24.5851 49.6875 24.1346C50.25 23.1167 48.317 21.5971 46.875 22.0989C46.875 22.0989 41.7215 27.5674 40.6875 33.8039Z" fill="#8DC613"/>
</svg>
