<svg width="167" height="140" viewBox="0 0 167 140" fill="none" xmlns="http://www.w3.org/2000/svg">
<path d="M29.5849 81.1984C33.395 79.6612 37.4806 80.8858 38.7104 83.9337C39.9402 86.9817 37.8485 90.6987 34.0385 92.2359C30.2285 93.7731 26.1429 92.5485 24.9131 89.5005C23.6832 86.4526 25.7749 82.7356 29.5849 81.1984Z" fill="#9BCF68"/>
<path d="M54.2735 76C50.1651 76.0001 46.8345 78.6646 46.8345 81.9512C46.8345 85.2379 50.1651 87.9022 54.2735 87.9021C58.382 87.902 61.7125 85.2376 61.7125 81.9509C61.7125 78.6642 58.382 75.9999 54.2735 76Z" fill="#9BCF68"/>
<path d="M77.5054 81.1984C73.6953 79.6612 69.6097 80.8858 68.3799 83.9337C67.1501 86.9817 69.2418 90.6987 73.0518 92.2359C76.8618 93.7731 80.9474 92.5485 82.1772 89.5005C83.4071 86.4526 81.3154 82.7356 77.5054 81.1984Z" fill="#9BCF68"/>
<path d="M77.5054 81.1984C73.6953 79.6612 69.6097 80.8858 68.3799 83.9337C67.1501 86.9817 69.2418 90.6987 73.0518 92.2359C76.8618 93.7731 80.9474 92.5485 82.1772 89.5005C83.4071 86.4526 81.3154 82.7356 77.5054 81.1984Z" fill="#9BCF68"/>
<path d="M96.1277 95.3266C93.4502 92.2103 89.2588 91.4204 86.7659 93.5623C84.2729 95.7041 84.4224 99.9666 87.0999 103.083C89.7773 106.199 93.9687 106.989 96.4617 104.847C98.9546 102.705 98.8051 98.4428 96.1277 95.3266Z" fill="#9BCF68"/>
<path d="M11.4353 95.3266C14.1127 92.2103 18.3042 91.4204 20.7971 93.5623C23.2901 95.7041 23.1405 99.9666 20.4631 103.083C17.7857 106.199 13.5943 106.989 11.1013 104.847C8.60837 102.705 8.7579 98.4428 11.4353 95.3266Z" fill="#9BCF68"/>
<path d="M106.842 117.303C106.089 113.264 102.859 110.478 99.6279 111.08C96.3969 111.683 94.3882 115.445 95.1413 119.484C95.8945 123.523 99.1243 126.309 102.355 125.706C105.586 125.104 107.595 121.341 106.842 117.303Z" fill="#9BCF68"/>
<path d="M0.158187 117.303C0.911352 113.264 4.14115 110.478 7.37215 111.08C10.6031 111.683 12.6118 115.445 11.8587 119.484C11.1055 123.523 7.87569 126.309 4.64469 125.706C1.4137 125.104 -0.594978 121.341 0.158187 117.303Z" fill="#9BCF68"/>
<path d="M100.766 118.662C103.433 118.662 105.595 122.266 105.595 126.711C105.595 131.157 103.433 134.761 100.766 134.761C98.0983 134.761 95.936 131.157 95.936 126.711C95.936 122.266 98.0983 118.662 100.766 118.662Z" fill="#E76666"/>
<path d="M92.1978 101.52C89.8168 102.722 89.5111 106.914 91.5149 110.882C93.5187 114.851 97.0733 117.093 99.4544 115.891C101.835 114.689 102.141 110.497 100.137 106.529C98.1334 102.56 94.5788 100.318 92.1978 101.52Z" fill="#E76666"/>
<path d="M77.1895 88.6255C75.5457 90.7261 77.0513 94.65 80.5524 97.3897C84.0534 100.129 88.2241 100.647 89.8679 98.5468C91.5117 96.4462 90.0061 92.5223 86.5051 89.7826C83.0041 87.043 78.8334 86.5249 77.1895 88.6255Z" fill="#E76666"/>
<path d="M58.3514 83.1282C57.7701 85.7315 60.816 88.6272 65.1547 89.5961C69.4934 90.565 73.4819 89.2401 74.0632 86.6369C74.6446 84.0337 71.5986 81.1379 67.2599 80.169C62.9212 79.2001 58.9327 80.525 58.3514 83.1282Z" fill="#E76666"/>
<path d="M48.3051 83.1282C48.8864 85.7315 45.8405 88.6272 41.5018 89.5961C37.1631 90.565 33.1746 89.2401 32.5933 86.6369C32.0119 84.0337 35.0579 81.1379 39.3966 80.169C43.7353 79.2001 47.7238 80.525 48.3051 83.1282Z" fill="#E76666"/>
<path d="M29.4972 88.6255C31.141 90.7261 29.6355 94.65 26.1344 97.3897C22.6334 100.129 18.4627 100.647 16.8189 98.5468C15.1751 96.4462 16.6806 92.5223 20.1817 89.7826C23.6827 87.043 27.8534 86.5249 29.4972 88.6255Z" fill="#E76666"/>
<path d="M14.1305 101.52C16.5115 102.722 16.8173 106.914 14.8134 110.882C12.8096 114.851 9.25496 117.093 6.87396 115.891C4.49295 114.689 4.1872 110.497 6.19103 106.529C8.19487 102.56 11.7495 100.318 14.1305 101.52Z" fill="#E76666"/>
<path d="M5.78253 118.662C8.44988 118.662 10.6122 122.266 10.6122 126.711C10.6122 131.157 8.44988 134.761 5.78253 134.761C3.11519 134.761 0.952881 131.157 0.952881 126.711C0.952881 122.266 3.11519 118.662 5.78253 118.662Z" fill="#E76666"/>
<path d="M101.337 133.125C100.456 136.835 97.1807 139.59 93.2752 139.59H13.2729C9.36749 139.59 6.09239 136.835 5.21095 133.125C5.05657 131.648 4.97754 130.15 4.97754 128.634C4.97754 103.566 26.6006 83.2444 53.2741 83.2444C79.9392 83.2444 101.557 103.553 101.571 128.611C101.571 128.619 101.571 128.626 101.571 128.634C101.571 128.642 101.571 128.65 101.571 128.658C101.57 130.165 101.491 131.655 101.337 133.125Z" fill="#F4CE6C"/>
<path d="M46.8345 122.662C47.7473 127.53 58.7012 127.53 59.6141 122.662" stroke="#393939" stroke-width="2.5" stroke-linecap="round"/>
<path d="M72.2943 112.762C72.2943 115.282 70.2508 117.326 67.7301 117.326C65.2094 117.326 63.166 115.282 63.166 112.762C63.166 110.241 65.2094 108.198 67.7301 108.198C70.2508 108.198 72.2943 110.241 72.2943 112.762Z" fill="#393939"/>
<path d="M43.0837 112.762C43.0837 115.282 41.0403 117.326 38.5196 117.326C35.9989 117.326 33.9554 115.282 33.9554 112.762C33.9554 110.241 35.9989 108.198 38.5196 108.198C41.0403 108.198 43.0837 110.241 43.0837 112.762Z" fill="#393939"/>
<path d="M77 12C77 5.37258 82.3726 0 89 0H155C161.627 0 167 5.37258 167 12V53C167 59.6274 161.627 65 155 65H115.524C113.223 65 110.971 65.6616 109.035 66.9059L98 74C96.535 75.0464 94.5 73.9992 94.5 72.1988V68.9073C94.5 66.7494 92.7506 65 90.5927 65H85.75C80.9175 65 77 61.0825 77 56.25V12Z" fill="#FD7272"/>
<path fill-rule="evenodd" clip-rule="evenodd" d="M122 23.2253C120.212 20.6706 117.247 19 113.891 19C108.428 19 104 23.4285 104 28.8913C104 34.3541 111.728 41.2935 122 47C132.272 42.4348 140 34.3541 140 28.8913C140 23.4285 135.572 19 130.109 19C126.753 19 123.788 20.6706 122 23.2253Z" fill="white"/>
</svg>
