<svg width="178" height="142" viewBox="0 0 178 142" fill="none" xmlns="http://www.w3.org/2000/svg">
<path d="M113.251 89.9272C144.122 75.7689 160.604 115.618 162.988 127.9C148.569 138.454 107.946 126.489 113.251 89.9272Z" fill="#8DC613" fill-opacity="0.9"/>
<path d="M115.393 90.1043C137.633 64.4365 169.133 93.8879 176.388 104.08C167.631 119.657 125.7 125.582 115.393 90.1043Z" fill="#8DC613" fill-opacity="0.8"/>
<path d="M73.976 33.5741C73.976 33.5741 84.4196 21.3898 94.8633 22.2601C95.2984 24.0008 95.2984 24.0008 94.8633 25.7413C87.4657 24.8711 74.8463 34.4444 74.8463 34.4444L73.976 33.5741Z" fill="#8DC613"/>
<path fill-rule="evenodd" clip-rule="evenodd" d="M81.8087 62.7294C81.8087 87.7235 57.005 114.077 32.2013 114.077C25.4236 114.077 19.9538 112.861 15.581 110.725C13.2721 112.404 10.0668 112.445 7.73319 110.62C5.24218 108.672 4.57505 105.248 5.98122 102.501C1.61837 96.1961 -0.000100681 87.9261 4.69744e-09 79.2652C0.000212496 60.9888 19.5817 29.2226 50.0426 29.2226C54.187 29.2226 57.9769 30.062 61.3816 31.5168C64.8767 28.4596 70.4709 28.9478 74.0523 32.6871C77.1564 35.9281 77.7551 40.5746 75.7726 43.9432C79.709 49.945 81.8087 56.8427 81.8087 62.7294Z" fill="#FFE244"/>
<circle cx="42.645" cy="43.1475" r="1.74061" fill="#FFF8DB"/>
<circle cx="49.6074" cy="43.1475" r="1.74061" fill="#FFF8DB"/>
<circle cx="46.1262" cy="37.9257" r="1.74061" fill="#FFF8DB"/>
<circle cx="24.3685" cy="109.291" r="1.74061" fill="#FFF8DB"/>
<path d="M77.4572 23.5656C58.7456 36.6202 43.0801 12.2516 40.0338 4.41886C48.3017 -4.28415 76.5869 -1.23802 77.4572 23.5656Z" fill="#8DC613"/>
<mask id="path-10-inside-1" fill="white">
<path d="M132 92.1646C132 116.004 112.301 135.329 88 135.329C63.6995 135.329 44 116.004 44 92.1646C44 68.3254 63.6995 49 88 49C112.301 49 132 68.3254 132 92.1646Z"/>
</mask>
<path d="M132 92.1646C132 116.004 112.301 135.329 88 135.329C63.6995 135.329 44 116.004 44 92.1646C44 68.3254 63.6995 49 88 49C112.301 49 132 68.3254 132 92.1646Z" fill="#F0F198"/>
<path d="M129 92.1646C129 114.293 110.698 132.329 88 132.329V138.329C113.903 138.329 135 117.714 135 92.1646H129ZM88 132.329C65.3018 132.329 47 114.293 47 92.1646H41C41 117.714 62.0971 138.329 88 138.329V132.329ZM47 92.1646C47 70.0362 65.3018 52 88 52V46C62.0971 46 41 66.6146 41 92.1646H47ZM88 52C110.698 52 129 70.0362 129 92.1646H135C135 66.6146 113.903 46 88 46V52Z" fill="#8DC613" mask="url(#path-10-inside-1)"/>
<path d="M98.5461 126.066C95.2955 127.02 91.8506 127.532 88.2839 127.532C84.6571 127.532 81.1563 127.002 77.8577 126.018L86.5682 98.629C87.0658 97.0647 89.3226 97.0647 89.8201 98.629L98.5461 126.066Z" fill="#BBDD36"/>
<path d="M105.305 123.311L91.5677 97.9445C90.784 96.4974 92.3712 94.9234 93.8547 95.6766L119.886 108.893C116.58 114.992 111.493 120.021 105.305 123.311Z" fill="#BBDD36"/>
<path d="M122.558 102.511L94.5895 93.9502C92.9949 93.4621 92.9949 91.2481 94.5895 90.7601L122.508 82.2149C123.512 85.4509 124.052 88.8852 124.052 92.4431C124.052 95.9422 123.53 99.3216 122.558 102.511Z" fill="#BBDD36"/>
<path d="M119.672 75.6053L93.8572 89.0597C92.3821 89.8286 90.7777 88.2715 91.5455 86.8162L104.958 61.3925C111.17 64.6095 116.3 69.5679 119.672 75.6053Z" fill="#BBDD36"/>
<path d="M98.5087 58.8092L89.8201 86.1288C89.3226 87.6931 87.0657 87.6931 86.5682 86.1288L77.895 58.8575C81.1827 57.8801 84.6707 57.3545 88.2839 57.3545C91.837 57.3545 95.2691 57.8627 98.5087 58.8092Z" fill="#BBDD36"/>
<path d="M56.6868 75.9847C59.977 69.9184 65.0294 64.9117 71.1741 61.622L84.835 86.8471C85.6187 88.2942 84.0315 89.8682 82.548 89.115L56.6868 75.9847Z" fill="#BBDD36"/>
<path d="M53.9989 102.474C53.0342 99.2957 52.5161 95.9288 52.5161 92.4431C52.5161 88.8986 53.0518 85.4768 54.0482 82.2515L81.8473 90.7601C83.4419 91.2481 83.4419 93.4621 81.8473 93.9502L53.9989 102.474Z" fill="#BBDD36"/>
<path d="M71.4131 123.391C65.224 120.137 60.1242 115.149 56.789 109.089L82.5451 95.6646C84.0203 94.8958 85.6247 96.4529 84.8569 97.9082L71.4131 123.391Z" fill="#BBDD36"/>
<circle cx="106.553" cy="89.2689" r="6.33898" fill="#393939"/>
<circle cx="69.8945" cy="89.2689" r="6.33898" fill="#393939"/>
<path d="M81.1555 99.5521C82.1333 104.767 93.8666 104.767 94.8444 99.5521" stroke="#393939" stroke-width="2" stroke-linecap="round"/>
<path d="M137.704 116.277C137.704 129.334 127.066 140.391 113.893 140.391C100.72 140.391 90 129.334 90 116.277L113.852 116.277C127.025 116.277 137.704 116.277 137.704 116.277Z" fill="#FFF4E2"/>
<path d="M119.547 135.177C117.804 135.688 115.957 135.963 114.045 135.963C112.1 135.963 110.223 135.679 108.455 135.151L113.125 120.467C113.392 119.628 114.602 119.628 114.868 120.467L119.547 135.177Z" fill="#FFE244"/>
<path d="M123.171 133.7L115.805 120.1C115.385 119.324 116.236 118.48 117.031 118.884L130.987 125.97C129.215 129.24 126.488 131.936 123.171 133.7Z" fill="#FFE244"/>
<path d="M132.42 122.548L117.425 117.959C116.57 117.697 116.57 116.539 117.425 116.277L133.221 116.277C133.221 116.277 133.221 116.429 133.221 117.151C133.221 119.027 132.941 120.838 132.42 122.548Z" fill="#FFE244"/>
<path d="M95.6634 122.528C95.1462 120.825 94.8684 119.019 94.8684 117.151C94.8684 115.25 94.8684 116.277 94.8684 116.277H110.594C111.449 116.539 111.449 117.697 110.594 117.959L95.6634 122.528Z" fill="#FFE244"/>
<path d="M105 133.743C101.682 131.998 98.9474 129.324 97.1592 126.075L110.968 118.878C111.759 118.466 112.619 119.3 112.207 120.081L105 133.743Z" fill="#FFE244"/>
<path d="M137.18 116.277C137.18 129.416 126.736 139.867 113.852 139.867C100.969 139.867 90.5243 129.416 90.5243 116.277" stroke="#FFE244" stroke-width="3"/>
</svg>
