<svg width="132" height="130" viewBox="0 0 132 130" fill="none" xmlns="http://www.w3.org/2000/svg">
<path d="M46.2016 82.8155C46.2016 92.8601 42.1656 96.6028 32.1209 96.6028C22.0763 96.6028 13.9335 88.4599 13.9335 78.4153C13.9335 68.3706 22.0763 60.2278 32.1209 60.2278C42.1656 60.2278 46.2016 72.7708 46.2016 82.8155Z" fill="#F4C05C"/>
<path d="M47.52 56.1503C54.2828 63.3553 60.1128 87.7595 39.8245 95.4294C53.5146 78.9275 33.9944 73.5818 34.9272 62.1932C32.5952 64.7498 28.1645 65.4471 27.7408 81.949C23.7337 80.0896 23.7337 75.906 23.7337 73.5818C21.8682 76.1384 16.2714 88.2243 25.5994 95.4294C9.64746 88.8049 9.30979 73.5818 12.7734 66.8416C17.6706 57.3124 26.9986 52.1991 27.7408 35C38.9344 41.2754 44.7219 53.3612 43.3224 62.1932C46.3543 62.1932 47.52 55.2219 47.52 56.1503Z" fill="#F49640"/>
<path d="M104.011 79.552C99.8712 89.8733 71.2585 92.7499 64.8274 87.8476C59.342 83.6665 75.257 78.8044 78.3565 77.7874C84.6077 75.7364 88.316 73.9793 91.429 71.6707C94.5421 69.3621 97.8967 68.6464 100.983 71.2642C104.928 74.6095 105.155 76.6973 104.011 79.552Z" fill="#FFD363"/>
<path d="M104.253 76.3713C102.84 77.3754 102.443 75.3833 101.296 73.7795C100.149 72.1758 98.9015 71.503 100.315 70.499C101.728 69.4949 103.222 70.3055 104.369 71.9092C105.517 73.5129 105.666 75.3672 104.253 76.3713Z" fill="#8DC613"/>
<path d="M106.61 68.4099C106.427 67.5701 105.645 67.0163 104.865 67.1731C104.085 67.3298 103.601 68.1378 103.784 68.9776L106.61 68.4099ZM102.434 71.0626C101.689 71.339 101.323 72.2185 101.617 73.0269C101.912 73.8353 102.755 74.2666 103.5 73.9901L102.434 71.0626ZM105.197 68.6938C103.784 68.9776 103.784 68.9768 103.784 68.976C103.784 68.9757 103.784 68.9749 103.784 68.9744C103.783 68.9733 103.783 68.9723 103.783 68.9713C103.783 68.9694 103.782 68.9676 103.782 68.9659C103.781 68.9626 103.781 68.9599 103.78 68.9578C103.779 68.9535 103.779 68.9515 103.779 68.9516C103.779 68.9519 103.781 68.9606 103.783 68.9766C103.787 69.009 103.794 69.0686 103.798 69.148C103.806 69.311 103.797 69.5303 103.741 69.7599C103.645 70.1491 103.39 70.7085 102.434 71.0626L103.5 73.9901C105.383 73.2922 106.242 71.9354 106.552 70.6712C106.698 70.0742 106.715 69.5326 106.698 69.1414C106.689 68.9437 106.67 68.7778 106.653 68.6541C106.644 68.592 106.635 68.5398 106.628 68.4989C106.624 68.4784 106.621 68.4607 106.618 68.4458C106.616 68.4384 106.615 68.4316 106.614 68.4257C106.613 68.4227 106.612 68.4199 106.612 68.4172C106.612 68.4159 106.611 68.4147 106.611 68.4134C106.611 68.4128 106.611 68.412 106.611 68.4116C106.61 68.4108 106.61 68.4099 105.197 68.6938Z" fill="#8DC613"/>
<path d="M112.198 87.9041C108.058 98.2254 79.4455 101.102 73.0144 96.1997C67.529 92.0186 83.444 87.1565 86.5435 86.1395C92.7948 84.0885 96.503 82.3314 99.616 80.0228C102.729 77.7142 106.084 76.9986 109.17 79.6163C113.115 82.9616 113.342 85.0494 112.198 87.9041Z" fill="#7DB10F"/>
<path d="M112.44 84.7233C111.027 85.7274 110.63 83.7353 109.483 82.1315C108.336 80.5278 107.089 79.855 108.502 78.851C109.915 77.8469 111.409 78.6575 112.556 80.2612C113.704 81.8649 113.853 83.7192 112.44 84.7233Z" fill="#8DC613"/>
<path d="M114.797 76.7619C114.614 75.9221 113.832 75.3683 113.052 75.5251C112.272 75.6818 111.788 76.4898 111.971 77.3296L114.797 76.7619ZM110.622 79.4146C109.876 79.6911 109.51 80.5705 109.804 81.3789C110.099 82.1873 110.942 82.6186 111.687 82.3421L110.622 79.4146ZM113.384 77.0458C111.971 77.3296 111.971 77.3288 111.971 77.328C111.971 77.3277 111.971 77.3269 111.971 77.3264C111.97 77.3253 111.97 77.3243 111.97 77.3233C111.97 77.3214 111.969 77.3196 111.969 77.3179C111.968 77.3146 111.968 77.3119 111.967 77.3098C111.966 77.3055 111.966 77.3035 111.966 77.3036C111.966 77.3039 111.968 77.3126 111.97 77.3286C111.974 77.361 111.981 77.4206 111.985 77.5C111.993 77.663 111.984 77.8823 111.928 78.112C111.832 78.5011 111.577 79.0605 110.622 79.4146L111.687 82.3421C113.57 81.6442 114.429 80.2874 114.739 79.0232C114.885 78.4262 114.902 77.8846 114.885 77.4934C114.876 77.2957 114.857 77.1299 114.84 77.0061C114.831 76.944 114.822 76.8918 114.815 76.8509C114.811 76.8304 114.808 76.8127 114.805 76.7978C114.803 76.7904 114.802 76.7836 114.801 76.7777C114.8 76.7747 114.799 76.7719 114.799 76.7692C114.799 76.7679 114.798 76.7667 114.798 76.7654C114.798 76.7648 114.798 76.764 114.798 76.7637C114.797 76.7628 114.797 76.7619 113.384 77.0458Z" fill="#8DC613"/>
<path d="M93.9879 39.0292C101.405 61.6093 58.5398 105.654 41.2764 106.474C26.5522 107.174 45.9097 77.3375 49.5833 71.4122C56.9926 59.4614 60.6448 51.488 62.5649 43.4304C64.485 35.3728 68.9902 29.5897 77.64 29.6295C88.6941 29.6804 91.9365 32.784 93.9879 39.0292Z" fill="#F65D53"/>
<path d="M90.8633 33.4015C90.0054 36.7199 86.4223 34.0864 82.1699 32.9887C77.9175 31.8909 74.8677 32.3767 75.7255 29.0584C76.5834 25.74 80.2427 25.1661 84.4951 26.2638C88.7475 27.3615 91.7212 30.0831 90.8633 33.4015Z" fill="#8DC613"/>
<path d="M82.2638 18.1054C81.5648 17.582 80.6077 17.6561 80.1259 18.2709C79.6442 18.8857 79.8203 19.8084 80.5192 20.3318L82.2638 18.1054ZM81.8143 27.7981C81.422 28.4725 81.7142 29.3791 82.467 29.8231C83.2198 30.2671 84.1481 30.0803 84.5405 29.4059L81.8143 27.7981ZM81.3915 19.2186C80.5192 20.3318 80.5185 20.3313 80.5179 20.3308C80.5177 20.3306 80.517 20.3302 80.5166 20.3299C80.5158 20.3293 80.5151 20.3287 80.5145 20.3282C80.5132 20.3273 80.5122 20.3265 80.5115 20.3259C80.51 20.3248 80.5097 20.3246 80.5105 20.3252C80.5121 20.3264 80.518 20.331 80.5278 20.3389C80.5475 20.3547 80.5828 20.3837 80.6306 20.4252C80.7266 20.5085 80.8709 20.6407 81.04 20.8177C81.3813 21.1749 81.8042 21.6943 82.1417 22.3446C82.7807 23.5755 83.1988 25.4179 81.8143 27.7981L84.5405 29.4059C86.4162 26.1814 85.9415 23.3321 84.8724 21.2725C84.3559 20.2775 83.721 19.5019 83.2181 18.9755C82.965 18.7107 82.7406 18.5039 82.5733 18.3587C82.4895 18.2859 82.4196 18.2282 82.367 18.1859C82.3407 18.1648 82.3186 18.1475 82.3013 18.134C82.2926 18.1273 82.2851 18.1216 82.2789 18.1168C82.2757 18.1144 82.2729 18.1123 82.2704 18.1104C82.2691 18.1094 82.268 18.1085 82.2669 18.1077C82.2663 18.1073 82.2655 18.1067 82.2653 18.1065C82.2645 18.106 82.2638 18.1054 81.3915 19.2186Z" fill="#8DC613"/>
<ellipse cx="83.5032" cy="57.2499" rx="2.9405" ry="3.06285" transform="rotate(9.2499 83.5032 57.2499)" fill="#393939"/>
<ellipse cx="66.7194" cy="54.5165" rx="2.9405" ry="3.06285" transform="rotate(9.2499 66.7194 54.5165)" fill="#393939"/>
<path d="M71.0765 60.2602C71.1192 62.82 76.4912 63.6949 77.3439 61.2809" stroke="#393939" stroke-width="1.5" stroke-linecap="round"/>
</svg>
