<svg width="50" height="50" viewBox="0 0 50 50" fill="none" xmlns="http://www.w3.org/2000/svg">
<path fill-rule="evenodd" clip-rule="evenodd" d="M25 45C30.3043 45 35.3914 42.8929 39.1421 39.1421C42.8929 35.3914 45 30.3043 45 25C45 19.6957 42.8929 14.6086 39.1421 10.8579C35.3914 7.10714 30.3043 5 25 5C19.6957 5 14.6086 7.10714 10.8579 10.8579C7.10714 14.6086 5 19.6957 5 25C5 30.3043 7.10714 35.3914 10.8579 39.1421C14.6086 42.8929 19.6957 45 25 45ZM27.5 17.5C27.5 16.837 27.2366 16.2011 26.7678 15.7322C26.2989 15.2634 25.663 15 25 15C24.337 15 23.7011 15.2634 23.2322 15.7322C22.7634 16.2011 22.5 16.837 22.5 17.5V22.5H17.5C16.837 22.5 16.2011 22.7634 15.7322 23.2322C15.2634 23.7011 15 24.337 15 25C15 25.663 15.2634 26.2989 15.7322 26.7678C16.2011 27.2366 16.837 27.5 17.5 27.5H22.5V32.5C22.5 33.163 22.7634 33.7989 23.2322 34.2678C23.7011 34.7366 24.337 35 25 35C25.663 35 26.2989 34.7366 26.7678 34.2678C27.2366 33.7989 27.5 33.163 27.5 32.5V27.5H32.5C33.163 27.5 33.7989 27.2366 34.2678 26.7678C34.7366 26.2989 35 25.663 35 25C35 24.337 34.7366 23.7011 34.2678 23.2322C33.7989 22.7634 33.163 22.5 32.5 22.5H27.5V17.5Z" fill="#FF6C63"/>
</svg>
