<svg xmlns="http://www.w3.org/2000/svg" viewBox="0 0 61.75 111.33"><defs><style>.bad49199-6a6d-4c11-94e8-1061091a9f78{fill:#f65d53;}.bbaef6dc-4c21-4d12-8bc3-9bfdf7d275a3{fill:#8dc613;}.b5c6f226-146e-4108-a934-5dc399ad29b6{fill:#393939;}.eabb8921-f319-476f-a8b7-b9774d316ccb{fill:none;stroke:#393939;stroke-linecap:round;stroke-width:2.19px;}</style></defs><g id="f0067aca-558f-478b-b40b-0376e0740cdf" data-name="Capa 2"><g id="e92a9c1d-8e8a-428c-80fc-ef129df753f4" data-name="Iconos"><g id="bf37e4df-d780-4cef-9f94-fa23616dda22" data-name="Chile_Icon"><path class="bad49199-6a6d-4c11-94e8-1061091a9f78" d="M59.7,23.76c12.06,25.59-32.14,83.9-52.41,87.4-17.32,3,1.19-35.1,4.7-42.64,7-15.21,10.13-25.16,11.22-35S28.78,16.27,39,15C52.07,13.49,56.37,16.68,59.7,23.76Z"/><path class="bbaef6dc-4c21-4d12-8bc3-9bfdf7d275a3" d="M54,18.35c-.26,1.19-3.46-.84-8.64-1.51s-8.37,0-8.24-1.09c.35-2.73,4.08-3.94,9.25-3.27S54.57,15.75,54,18.35Z"/><path class="bbaef6dc-4c21-4d12-8bc3-9bfdf7d275a3" d="M54,18.35l-2.15-.45Zm-16.88-2.6,2.19.28ZM43,.29a2.18,2.18,0,0,0-3,.82,2.18,2.18,0,0,0,.79,3Zm.4,11.87A2.19,2.19,0,0,0,44.53,15a2.23,2.23,0,0,0,2.89-1.16Zm8.5,5.74a1.81,1.81,0,0,1,1-1.23,1.4,1.4,0,0,1,.61-.15,7.29,7.29,0,0,1-1.27-.33,39.1,39.1,0,0,0-6.53-1.53L45.1,19a35.24,35.24,0,0,1,5.83,1.38,12.38,12.38,0,0,0,2.19.51,3.31,3.31,0,0,0,1.62-.26,2.65,2.65,0,0,0,1.45-1.84Zm-6.22-3.24c-2.72-.35-5-.35-6.32-.41l-.83,0a1,1,0,0,1-.26,0l.17.07a1.57,1.57,0,0,1,.4.32A1.85,1.85,0,0,1,39.35,16L35,15.46a2.68,2.68,0,0,0,.7,2.14,2.93,2.93,0,0,0,1.4.79,9.5,9.5,0,0,0,2.11.25A54.71,54.71,0,0,1,45.1,19ZM39.35,16c0-.24.18-.72,1.36-1.12a12.52,12.52,0,0,1,5.44-.26l.53-4.34a16.56,16.56,0,0,0-7.42.46A5.88,5.88,0,0,0,35,15.46Zm6.8-1.38A9.84,9.84,0,0,1,51,16.41c.92.73.92,1.26.87,1.49l4.3.9A5.9,5.9,0,0,0,53.74,13a14.12,14.12,0,0,0-7.06-2.67ZM41.89,2.19,40.8,4.1h0s0,.05.13.09.31.21.53.4A8.11,8.11,0,0,1,43,6.19a5.91,5.91,0,0,1,.4,6l4,1.72A10.17,10.17,0,0,0,46.59,3.7a13.26,13.26,0,0,0-2.33-2.51c-.35-.28-.65-.49-.87-.64a1.41,1.41,0,0,0-.27-.18s0,0-.09,0v0s0,0,0,0h0Z"/><ellipse class="b5c6f226-146e-4108-a934-5dc399ad29b6" cx="49.96" cy="46.82" rx="3.65" ry="3.5" transform="translate(1.27 94.96) rotate(-87.81)"/><ellipse class="b5c6f226-146e-4108-a934-5dc399ad29b6" cx="29.75" cy="46.05" rx="3.65" ry="3.5" transform="matrix(0.04, -1, 1, 0.04, -17.4, 74.02)"/><path class="eabb8921-f319-476f-a8b7-b9774d316ccb" d="M35.71,52.19c.44,3,6.93,3.27,7.59.29"/></g></g></g></svg>