<svg xmlns="http://www.w3.org/2000/svg" viewBox="0 0 85.72 99.99"><defs><style>.ac240ac7-fbbf-484c-94c9-bc14550e7683{fill:#fff;}</style></defs><g id="e1833228-d9f6-4e78-8cad-171a7c9e39d1" data-name="Capa 2"><g id="b48ee81f-3314-4256-93ba-74da702cd7f9" data-name="Iconos"><g id="e6aa4a09-5ea9-4f47-a465-d0e63777ac78" data-name="Cubiertos_Icon"><path class="ac240ac7-fbbf-484c-94c9-bc14550e7683" d="M13.49,46.5h5l2.38,51.06A2.36,2.36,0,0,1,18.35,100H13.59a2.38,2.38,0,0,1-2.48-2.43Z"/><path class="ac240ac7-fbbf-484c-94c9-bc14550e7683" d="M65.77,46.5h5l2.38,51.06A2.4,2.4,0,0,1,70.67,100H65.91a2.44,2.44,0,0,1-2.52-2.43Z"/><path class="ac240ac7-fbbf-484c-94c9-bc14550e7683" d="M6,0H3.49L.06,33.56C-.75,41.75,6.16,48.83,15,48.83h2c8.81,0,15.71-7.08,14.85-15.27L28.44,0H25.92V37.2H21V0H18.44V37.2h-5V0H11V37.2H6Z"/><path class="ac240ac7-fbbf-484c-94c9-bc14550e7683" d="M85.72,24.42c0,13.48-7.81,24.41-17.43,24.41S50.82,37.9,50.82,24.42,58.63,0,68.29,0,85.72,10.93,85.72,24.42Z"/></g></g></g></svg>