<svg width="14" height="14" viewBox="0 0 14 14" fill="none" xmlns="http://www.w3.org/2000/svg">
<path d="M3.66556 5.3161H0.413591C0.246903 5.3161 0.0965396 5.21599 0.032227 5.06221C-0.0320583 4.90843 0.00223083 4.73108 0.11929 4.61243L3.41258 1.27337C3.49026 1.19459 3.59627 1.15027 3.70691 1.15027H5.33288C5.4761 1.15027 5.60913 1.2244 5.68446 1.34624C5.7598 1.46806 5.76669 1.62017 5.7027 1.74833L4.03539 5.08739C3.96541 5.22756 3.82221 5.3161 3.66556 5.3161Z" fill="#A0EBFF"/>
<path d="M13.5866 5.3161H10.3346C10.178 5.3161 10.0348 5.22756 9.96479 5.08739L8.29748 1.74833C8.23349 1.62017 8.24041 1.46806 8.31572 1.34624C8.39102 1.22442 8.5241 1.15027 8.6673 1.15027H10.2933C10.4039 1.15027 10.5099 1.19462 10.5876 1.27337L13.8809 4.61243C13.9979 4.7311 14.0323 4.90848 13.968 5.06221C13.9037 5.21602 13.7533 5.3161 13.5866 5.3161Z" fill="#73C8F0"/>
<path d="M3.20312 4.89197L5.33269 1.15027H8.66735L10.7904 4.89197H3.20312Z" fill="#D2F0FF"/>
<path d="M9.88735 4.89138L6.62198 12.2689C6.53927 12.4557 6.60547 12.675 6.77779 12.7848C6.84628 12.8284 6.92334 12.8496 6.99979 12.8496C7.1157 12.8496 7.23019 12.801 7.31121 12.7083L13.8978 5.1742C13.9674 5.09458 14.0022 4.99321 13.9996 4.89136H9.88735V4.89138Z" fill="#0073AA"/>
<path d="M4.11274 4.89136H0.000473963C-0.00215104 4.99319 0.0326303 5.09458 0.102248 5.1742L6.68885 12.7083C6.76987 12.801 6.88439 12.8496 7.00027 12.8496C7.07672 12.8496 7.15381 12.8284 7.22227 12.7848C7.39454 12.675 7.46077 12.4557 7.37808 12.2689L4.11274 4.89136Z" fill="#41B4E6"/>
<path d="M3.20312 4.89136L6.62203 12.6035C6.68823 12.7531 6.83643 12.8496 7.00003 12.8496C7.16363 12.8496 7.31183 12.7531 7.37803 12.6035L10.7904 4.89136H3.20312Z" fill="#A0EBFF"/>
<path d="M6.99673 4.89197H10.7904L8.6673 1.15027H6.99673V4.89197Z" fill="#41B4E6"/>
<path d="M7.00003 12.8496C7.16363 12.8496 7.31183 12.7531 7.37803 12.6035L10.7904 4.89136H7.00003V12.8496Z" fill="#73C8F0"/>
</svg>
