<svg xmlns="http://www.w3.org/2000/svg" viewBox="0 0 89.83 53.95"><defs><style>.f11a5a95-f33a-4020-9314-e11821d1556d{fill:#606060;fill-rule:evenodd;}</style></defs><g id="e3fb6ad0-f9b4-4e50-889c-d0348d04b235" data-name="Capa 2"><g id="ac501252-f18e-47bc-a436-9b2916c41dd9" data-name="Iconos"><path id="ab9f9876-27cf-4279-b828-a9ae81d8d6a1" data-name="DownArrow_Icon" class="f11a5a95-f33a-4020-9314-e11821d1556d" d="M2.6,2.74a9,9,0,0,1,12.75,0L44.87,32.29,74.4,2.74a9.83,9.83,0,0,1,3-2A8.53,8.53,0,0,1,80.77,0a8.94,8.94,0,0,1,6.46,2.63,9.21,9.21,0,0,1,2,2.94,9.18,9.18,0,0,1-2.06,9.86L51.24,51.32a9,9,0,0,1-12.74,0L2.6,15.43A9.29,9.29,0,0,1,0,9.08,9.25,9.25,0,0,1,2.6,2.74Z"/></g></g></svg>