<svg xmlns="http://www.w3.org/2000/svg" viewBox="0 0 107.25 107.25"><defs><style>.f21aa190-893b-44a0-8297-6d361579300d{fill:#f0f198;stroke:#8dc613;}.b2765535-22ef-4ccb-b382-1a56e179f12f,.f21aa190-893b-44a0-8297-6d361579300d{stroke-width:4.29px;}.bae60e0d-577a-4a2c-a833-9e0247fd87e7{fill:#bbdd36;}.a5b95806-ac27-4822-bc0f-cabcadf8b2be{fill:#393939;}.b2765535-22ef-4ccb-b382-1a56e179f12f{fill:none;stroke:#393939;stroke-linecap:round;}</style></defs><g id="b0fdaea2-8c5c-45d2-b059-17fc3dc7c32d" data-name="Capa 2"><g id="b2b1b7ff-50b1-451d-b218-5a47ab928a59" data-name="Iconos"><g id="ad425ee8-6a4c-4532-bdfa-27aad9747abf" data-name="Lemon_Icon"><circle class="f21aa190-893b-44a0-8297-6d361579300d" cx="53.62" cy="53.62" r="51.48"/><path class="bae60e0d-577a-4a2c-a833-9e0247fd87e7" d="M66.49,95.74a43.9,43.9,0,0,1-25.22-.06l10.6-34a2.09,2.09,0,0,1,4,0Z"/><path class="bae60e0d-577a-4a2c-a833-9e0247fd87e7" d="M74.73,92.32,58,60.81A2.08,2.08,0,0,1,60.75,58L92.49,74.41A44,44,0,0,1,74.73,92.32Z"/><path class="bae60e0d-577a-4a2c-a833-9e0247fd87e7" d="M95.75,66.48,61.65,55.84a2.08,2.08,0,0,1,0-4l34-10.61A42.93,42.93,0,0,1,97.55,54,44.45,44.45,0,0,1,95.75,66.48Z"/><path class="bae60e0d-577a-4a2c-a833-9e0247fd87e7" d="M92.23,33.05,60.75,49.77A2.06,2.06,0,0,1,58,47L74.3,15.4A43.86,43.86,0,0,1,92.23,33.05Z"/><path class="bae60e0d-577a-4a2c-a833-9e0247fd87e7" d="M66.45,12.19,55.86,46.13a2.1,2.1,0,0,1-4,0L41.31,12.25a43.86,43.86,0,0,1,25.14-.06Z"/><path class="bae60e0d-577a-4a2c-a833-9e0247fd87e7" d="M15.44,33.52A44,44,0,0,1,33.12,15.68L49.76,47A2.08,2.08,0,0,1,47,49.84Z"/><path class="bae60e0d-577a-4a2c-a833-9e0247fd87e7" d="M12.18,66.43A44.16,44.16,0,0,1,10.38,54a43.7,43.7,0,0,1,1.85-12.66L46.12,51.88a2.07,2.07,0,0,1,0,4Z"/><path class="bae60e0d-577a-4a2c-a833-9e0247fd87e7" d="M33.42,92.42A43.89,43.89,0,0,1,15.57,74.65L47,58a2.09,2.09,0,0,1,2.84,2.79Z"/><ellipse class="a5b95806-ac27-4822-bc0f-cabcadf8b2be" cx="76.23" cy="50.03" rx="7.73" ry="7.88"/><ellipse class="a5b95806-ac27-4822-bc0f-cabcadf8b2be" cx="31.57" cy="50.03" rx="7.73" ry="7.88"/><path class="b2765535-22ef-4ccb-b382-1a56e179f12f" d="M45.3,62.8c1.16,6.48,15.49,6.48,16.65,0"/></g></g></g></svg>