<svg width="39" height="39" viewBox="0 0 39 39" fill="none" xmlns="http://www.w3.org/2000/svg">
<g clip-path="url(#clip0)">
<path d="M30.4688 14.625H29.25V9.75C29.25 4.37288 24.8771 0 19.5 0C14.1229 0 9.75 4.37288 9.75 9.75V14.625H8.53125C6.51625 14.625 4.875 16.2646 4.875 18.2812V35.3438C4.875 37.3604 6.51625 39 8.53125 39H30.4688C32.4837 39 34.125 37.3604 34.125 35.3438V18.2812C34.125 16.2646 32.4837 14.625 30.4688 14.625ZM13 9.75C13 6.16525 15.9152 3.25 19.5 3.25C23.0847 3.25 26 6.16525 26 9.75V14.625H13V9.75ZM21.125 27.1733V30.875C21.125 31.772 20.3986 32.5 19.5 32.5C18.6014 32.5 17.875 31.772 17.875 30.875V27.1733C16.9081 26.6094 16.25 25.5726 16.25 24.375C16.25 22.5826 17.7076 21.125 19.5 21.125C21.2924 21.125 22.75 22.5826 22.75 24.375C22.75 25.5726 22.0919 26.6094 21.125 27.1733Z" fill="#FF6C63"/>
</g>
<defs>
<clipPath id="clip0">
<rect width="39" height="39" fill="white"/>
</clipPath>
</defs>
</svg>
