<svg xmlns="http://www.w3.org/2000/svg" viewBox="0 0 105.02 71.72"><defs><style>.b4f9906b-f074-4266-aa81-0ed65a28473d{fill:#a8a8a8;}.a9a606c4-77aa-447f-8b1b-0afdf65fadda{fill:#fd554b;}.b7493b35-3ced-47f8-8dfc-dab2d9864bd8{fill:#353e48;}.eb221745-0896-4d54-b8c4-507020762c2a{fill:none;stroke:#353e48;stroke-linecap:round;stroke-width:2.5px;}</style></defs><g id="b8a916c4-171a-45ee-a703-3f2b4b5a9734" data-name="Capa 2"><g id="a8416e00-c45c-4c3c-9f8f-ce380d4d153f" data-name="Iconos"><g id="a98af254-c766-4cc5-952c-e95967783a5e" data-name="Molcajete_Icon"><path class="b4f9906b-f074-4266-aa81-0ed65a28473d" d="M105,21.35c0,17.26-23.54,43.12-52.51,43.12S0,38.61,0,21.35A139.92,139.92,0,0,1,52.51,10.57,140,140,0,0,1,105,21.35Z"/><path class="b4f9906b-f074-4266-aa81-0ed65a28473d" d="M105,21.35c0,5.95-23.54,11.4-52.51,11.4S0,27.3,0,21.35,23.53,7.52,52.51,7.52,105,15.39,105,21.35Z"/><path class="b4f9906b-f074-4266-aa81-0ed65a28473d" d="M37.32,50.45C28.78,66.63,30,66.63,25.13,66.63c-9.79,0-7.34-9.71-13.44-28,0,0,4.15,2.16,13.44,2.16S37.32,50.45,37.32,50.45Z"/><path class="b4f9906b-f074-4266-aa81-0ed65a28473d" d="M67.7,50.45C76.24,66.63,75,66.63,79.89,66.63c9.79,0,7.34-9.71,13.44-28,0,0-4.15,2.16-13.44,2.16S67.7,50.45,67.7,50.45Z"/><path class="a9a606c4-77aa-447f-8b1b-0afdf65fadda" d="M93.33,20.27c0,4.16-17,7.54-40.82,7.54s-40.82-3.38-40.82-7.54c0-2,5.8-8.87,15.39-9.7,3.6-.32,9.89,1.37,13.14,1.18,6.59-.38,6.74-5.5,16.08-5.5s9.35,3.39,18.64,4.32C85.48,11.61,93.33,14.88,93.33,20.27Z"/><path class="b4f9906b-f074-4266-aa81-0ed65a28473d" d="M65.35,53.28C58.9,71.72,63,71.72,52.51,71.72c-9.64,0-6.4,0-12.84-18.44,0,0,4-5.27,12.84-5.27S65.35,53.28,65.35,53.28Z"/><path class="b4f9906b-f074-4266-aa81-0ed65a28473d" d="M76.69,3.63c3-3.38,8-4.78,11.84-2.54l.15.07c3.75,2.22,4.5,6.93,2.5,10.75l-6,11.59s-9.34,2.16-16.34,2.16-10.49-1.08-10.49-1.08l3.85-4.31Z"/><circle class="b7493b35-3ced-47f8-8dfc-dab2d9864bd8" cx="68.59" cy="37.99" r="5.49"/><circle class="b7493b35-3ced-47f8-8dfc-dab2d9864bd8" cx="36.82" cy="37.99" r="5.49"/><path class="eb221745-0896-4d54-b8c4-507020762c2a" d="M46.56,46.9c.85,4.52,11,4.52,11.89,0"/><circle class="b7493b35-3ced-47f8-8dfc-dab2d9864bd8" cx="28.78" cy="46.06" r="0.85"/><circle class="b7493b35-3ced-47f8-8dfc-dab2d9864bd8" cx="27.08" cy="49.44" r="0.85"/><circle class="b7493b35-3ced-47f8-8dfc-dab2d9864bd8" cx="31.32" cy="48.6" r="0.85"/><circle class="b7493b35-3ced-47f8-8dfc-dab2d9864bd8" cx="77.89" cy="46.06" r="0.85"/><circle class="b7493b35-3ced-47f8-8dfc-dab2d9864bd8" cx="80.44" cy="48.6" r="0.85"/><circle class="b7493b35-3ced-47f8-8dfc-dab2d9864bd8" cx="66.05" cy="21.5" r="0.85"/><circle class="b7493b35-3ced-47f8-8dfc-dab2d9864bd8" cx="84.68" cy="18.11" r="0.85"/><circle class="b7493b35-3ced-47f8-8dfc-dab2d9864bd8" cx="75.79" cy="6.08" r="0.85"/><circle class="b7493b35-3ced-47f8-8dfc-dab2d9864bd8" cx="76.24" cy="49.44" r="0.85"/></g></g></g></svg>