<svg width="40" height="40" viewBox="0 0 40 40" fill="none" xmlns="http://www.w3.org/2000/svg">
<path d="M33.4338 10.7697C34.7084 10.7697 35.7415 9.73649 35.7415 8.46199C35.7415 7.18749 34.7084 6.1543 33.4338 6.1543C32.1593 6.1543 31.1262 7.18749 31.1262 8.46199C31.1262 9.73649 32.1593 10.7697 33.4338 10.7697Z" fill="#FF6C63"/>
<path d="M27.28 6.15445C28.5545 6.15445 29.5877 5.12126 29.5877 3.84675C29.5877 2.57225 28.5545 1.53906 27.28 1.53906C26.0055 1.53906 24.9723 2.57225 24.9723 3.84675C24.9723 5.12126 26.0055 6.15445 27.28 6.15445Z" fill="#FF6C63"/>
<path d="M21.1262 4.61538C22.4007 4.61538 23.4338 3.5822 23.4338 2.30769C23.4338 1.03319 22.4007 0 21.1262 0C19.8517 0 18.8185 1.03319 18.8185 2.30769C18.8185 3.5822 19.8517 4.61538 21.1262 4.61538Z" fill="#FF6C63"/>
<path d="M14.9723 7.69156C16.2468 7.69156 17.28 6.65837 17.28 5.38386C17.28 4.10936 16.2468 3.07617 14.9723 3.07617C13.6978 3.07617 12.6646 4.10936 12.6646 5.38386C12.6646 6.65837 13.6978 7.69156 14.9723 7.69156Z" fill="#FF6C63"/>
<path d="M31.1262 8.46049V18.4605C31.1262 18.8851 30.7815 19.2297 30.3569 19.2297C29.9323 19.2297 29.5877 18.8851 29.5877 18.4605V3.8451H24.9723V16.922C24.9723 17.3466 24.6277 17.6913 24.2031 17.6913C23.7785 17.6913 23.4338 17.3466 23.4338 16.922V2.30664H18.8185V16.922C18.8185 17.3466 18.4738 17.6913 18.0492 17.6913C17.6246 17.6913 17.28 17.3466 17.28 16.922V5.38356H12.6646V24.6143L9.54923 20.3513C8.62615 18.9282 6.82462 18.4513 5.50462 19.2666C4.18923 20.1005 3.86308 21.9189 4.77385 23.3374C4.77385 23.3374 9.79846 30.942 11.94 34.1974C14.0815 37.4528 17.5508 39.9989 24.0385 39.9989C34.78 39.9989 35.7415 31.7036 35.7415 29.2297C35.7415 26.7559 35.7415 8.46049 35.7415 8.46049H31.1262Z" fill="#FF6C63"/>
</svg>
