<svg xmlns="http://www.w3.org/2000/svg" viewBox="0 0 108.71 65.67"><defs><style>.b21f1d78-790a-42bb-8e19-8ac45b321f1b{fill:#9bcf68;}.f88ae82b-6964-40d7-a73c-ef0d8624354e{fill:#e76666;}.e67f04a9-d16c-4ee3-8a4f-d05c39c4aec9{fill:#f4ce6c;fill-rule:evenodd;}.a3414c06-3a16-4727-afa9-ad62585846f0{fill:#393939;}.a2fe2a9c-745b-4581-a397-e627c70a606a{fill:none;stroke:#000;stroke-linecap:round;stroke-width:2.24px;}</style></defs><g id="fae76e18-734b-4fb8-a266-a9138f027d71" data-name="Capa 2"><g id="a14c6155-f23b-4825-a58d-0e7b15a2108a" data-name="Iconos"><g id="f5e4e6f1-0698-4ff0-9205-db1a67a41adb" data-name="Taco_Icon"><circle class="b21f1d78-790a-42bb-8e19-8ac45b321f1b" cx="12.09" cy="34.57" r="6.19"/><circle class="b21f1d78-790a-42bb-8e19-8ac45b321f1b" cx="26.03" cy="17.61" r="6.19"/><circle class="b21f1d78-790a-42bb-8e19-8ac45b321f1b" cx="46.6" cy="8.71" r="6.19"/><circle class="b21f1d78-790a-42bb-8e19-8ac45b321f1b" cx="12.27" cy="34.37" r="6.19"/><circle class="b21f1d78-790a-42bb-8e19-8ac45b321f1b" cx="26.48" cy="16.73" r="6.19"/><ellipse class="b21f1d78-790a-42bb-8e19-8ac45b321f1b" cx="6.31" cy="44.23" rx="7.74" ry="6.19" transform="translate(-38.05 38.87) rotate(-75)"/><ellipse class="b21f1d78-790a-42bb-8e19-8ac45b321f1b" cx="16.75" cy="24.03" rx="7.74" ry="6.19" transform="matrix(0.63, -0.77, 0.77, 0.63, -12.45, 21.74)"/><ellipse class="b21f1d78-790a-42bb-8e19-8ac45b321f1b" cx="35.4" cy="9.85" rx="7.74" ry="6.19" transform="translate(-1.13 13.79) rotate(-21.71)"/><circle class="b21f1d78-790a-42bb-8e19-8ac45b321f1b" cx="96.62" cy="34.57" r="6.19" transform="translate(-0.04 0.11) rotate(-0.06)"/><circle class="b21f1d78-790a-42bb-8e19-8ac45b321f1b" cx="82.68" cy="17.61" r="6.19" transform="matrix(1, -0.02, 0.02, 1, -0.29, 1.41)"/><circle class="b21f1d78-790a-42bb-8e19-8ac45b321f1b" cx="62.11" cy="8.71" r="6.19" transform="translate(50.27 70.3) rotate(-87.11)"/><circle class="b21f1d78-790a-42bb-8e19-8ac45b321f1b" cx="96.44" cy="34.37" r="6.19" transform="translate(-0.57 1.65) rotate(-0.98)"/><circle class="b21f1d78-790a-42bb-8e19-8ac45b321f1b" cx="82.23" cy="16.73" r="6.19" transform="translate(61.38 98.01) rotate(-87.11)"/><ellipse class="b21f1d78-790a-42bb-8e19-8ac45b321f1b" cx="102.4" cy="44.23" rx="6.19" ry="7.74" transform="translate(-7.96 28.01) rotate(-15)"/><ellipse class="b21f1d78-790a-42bb-8e19-8ac45b321f1b" cx="91.96" cy="24.03" rx="6.19" ry="7.74" transform="matrix(0.77, -0.63, 0.63, 0.77, 5.62, 63.77)"/><ellipse class="b21f1d78-790a-42bb-8e19-8ac45b321f1b" cx="73.31" cy="9.85" rx="6.19" ry="7.74" transform="translate(37.05 74.32) rotate(-68.3)"/><ellipse class="b21f1d78-790a-42bb-8e19-8ac45b321f1b" cx="54.22" cy="6.19" rx="7.74" ry="6.19"/><ellipse class="f88ae82b-6964-40d7-a73c-ef0d8624354e" cx="97.02" cy="34" rx="3.67" ry="7.74" transform="matrix(0.86, -0.52, 0.52, 0.86, -3.58, 55.19)"/><ellipse class="f88ae82b-6964-40d7-a73c-ef0d8624354e" cx="82.9" cy="19.14" rx="3.89" ry="7.91" transform="translate(20.88 77.38) rotate(-56.2)"/><ellipse class="f88ae82b-6964-40d7-a73c-ef0d8624354e" cx="102.09" cy="50.62" rx="3.67" ry="7.74" transform="translate(-5.95 14.4) rotate(-7.84)"/><ellipse class="f88ae82b-6964-40d7-a73c-ef0d8624354e" cx="12.63" cy="34.05" rx="7.74" ry="3.67" transform="translate(-23.05 27.26) rotate(-58.87)"/><ellipse class="f88ae82b-6964-40d7-a73c-ef0d8624354e" cx="25.49" cy="19.02" rx="7.74" ry="3.67" transform="translate(-6.3 18.03) rotate(-34.95)"/><ellipse class="f88ae82b-6964-40d7-a73c-ef0d8624354e" cx="43.69" cy="11.6" rx="7.74" ry="4.12" transform="translate(-1.45 9.18) rotate(-11.8)"/><ellipse class="f88ae82b-6964-40d7-a73c-ef0d8624354e" cx="64.08" cy="11.13" rx="4.12" ry="7.74" transform="translate(38.29 70.84) rotate(-76.49)"/><ellipse class="f88ae82b-6964-40d7-a73c-ef0d8624354e" cx="7.56" cy="50.67" rx="7.74" ry="3.67" transform="translate(-43.67 51.25) rotate(-82.16)"/><path class="e67f04a9-d16c-4ee3-8a4f-d05c39c4aec9" d="M103.52,53.17a13.43,13.43,0,0,1-13.4,12.5H19.53A13.47,13.47,0,0,1,6.08,53.17C7.07,29.16,28.49,10,54.8,10S102.58,29.16,103.52,53.17Z"/><circle class="a3414c06-3a16-4727-afa9-ad62585846f0" cx="69.55" cy="38.93" r="4.75"/><circle class="a3414c06-3a16-4727-afa9-ad62585846f0" cx="39.16" cy="38.93" r="4.75"/><path class="a2fe2a9c-745b-4581-a397-e627c70a606a" d="M47.72,49.38c.94,5.06,12.33,5.06,13.27,0"/></g></g></g></svg>