<svg width="50" height="50" viewBox="0 0 50 50" fill="none" xmlns="http://www.w3.org/2000/svg">
<g clip-path="url(#clip0)">
<path d="M32.6808 14.2012C31.69 14.2012 30.7075 14.2869 29.7426 14.4566C33.5951 15.1487 39.2313 18.107 43.9234 28.372L44.0332 28.5767C44.9998 30.51 45.8535 31.1623 47.4141 31.1623C47.7776 31.1623 48.6279 30.9626 49.2484 30.2064C49.9889 29.3029 50.1868 27.8588 49.8217 26.0303C48.7052 20.4455 41.1372 14.2012 32.6808 14.2012Z" fill="#FACB70"/>
<path d="M38.4402 29.6192C38.5867 30.3522 38.6466 31.0235 38.6315 31.64H45.2477C44.5223 31.0319 43.5956 30.1293 43.1671 29.1909L43.045 28.9239C42.2372 27.1528 41.1689 24.8125 39.624 22.5748C38.8088 21.3935 37.8579 20.2413 36.7448 19.2155C34.3156 16.9776 31.1037 15.3438 26.7727 15.3438C23.7561 15.3438 21.3611 16.0409 19.4577 17.1631C19.7987 17.144 20.1398 17.1215 20.4835 17.1215C29.592 17.1222 37.2581 23.7085 38.4402 29.6192Z" fill="#FACB70"/>
<path d="M17.8828 18.2799C21.1431 18.9613 25.558 21.2923 29.6086 28.0815C29.8957 28.5623 30.1794 29.0673 30.4622 29.5939C30.809 30.2404 31.1526 30.92 31.4912 31.6388C31.5685 31.8036 31.6484 31.9541 31.7258 32.1229L31.8356 32.3276C31.8615 32.3792 31.8873 32.4207 31.913 32.4707C32.848 34.2859 33.6974 34.9132 35.2173 34.9132C35.5809 34.9132 36.4312 34.7135 37.0517 33.9573C37.3753 33.5631 37.5892 33.0589 37.7039 32.4707C37.7547 32.2095 37.7905 31.935 37.7996 31.6389C37.817 31.0765 37.7605 30.4559 37.6257 29.7811C37.3022 28.1648 36.4253 26.4959 35.155 24.9362C34.6592 24.3272 34.1019 23.7374 33.4894 23.1717C30.2575 20.1876 25.5356 17.9531 20.4842 17.9531C19.6622 17.9531 18.8486 18.0263 18.0442 18.1428C17.9368 18.1586 17.8279 18.1677 17.7205 18.1852C17.6623 18.1944 17.6041 18.1977 17.5458 18.2077C17.5832 18.2144 17.624 18.2252 17.6615 18.2318C17.7331 18.2467 17.8087 18.2641 17.8828 18.2799Z" fill="#FACB70"/>
<path d="M30.9696 33.147L30.6725 32.4924C30.6693 32.4857 30.6659 32.4782 30.6635 32.4716C30.542 32.2037 30.4162 31.925 30.2858 31.6397C28.1876 27.0575 24.736 20.4463 16.6424 19.4763C16.5583 19.4663 16.4759 19.453 16.3911 19.4439C16.1299 19.4164 15.8629 19.3972 15.5917 19.3815C15.2598 19.3632 14.922 19.3516 14.575 19.3516C2.65377 19.3515 0.317802 29.5857 0 35.7992H33.1401C32.4055 35.1362 31.4156 34.1229 30.9696 33.147ZM15.5127 26.416C15.5127 25.639 16.1425 25.0084 16.9203 25.0084C17.6973 25.0084 18.3279 25.6381 18.3279 26.416C18.3279 27.1931 17.6982 27.8236 16.9203 27.8236C16.1433 27.8236 15.5127 27.194 15.5127 26.416ZM20.1323 32.4716C19.951 33.0397 19.4252 33.4532 18.797 33.4532C18.1689 33.4532 17.6432 33.0389 17.4627 32.4716C17.4194 32.3368 17.3903 32.1954 17.3903 32.0464C17.3903 31.9042 17.4177 31.7694 17.4568 31.6396C17.6324 31.0622 18.1623 30.6388 18.7979 30.6388C19.4326 30.6388 19.9634 31.0622 20.139 31.6396C20.1781 31.7694 20.2055 31.9033 20.2055 32.0464C20.2047 32.1954 20.1747 32.3368 20.1323 32.4716ZM21.6123 29.7004C20.8353 29.7004 20.2047 29.0707 20.2047 28.2928C20.2047 27.5158 20.8344 26.8852 21.6123 26.8852C22.3893 26.8852 23.0199 27.5149 23.0199 28.2928C23.019 29.0698 22.3892 29.7004 21.6123 29.7004Z" fill="#FACB70"/>
</g>
<defs>
<clipPath id="clip0">
<rect width="50" height="50" fill="white"/>
</clipPath>
</defs>
</svg>
