<svg width="46" height="46" viewBox="0 0 46 46" fill="none" xmlns="http://www.w3.org/2000/svg">
<g clip-path="url(#clip0)">
<path d="M38.7013 19.7853C33.3265 19.9413 26.1774 20.6198 18.2986 21.9762C10.4196 23.3322 8.7294 21.1382 7.96724 18.6898C7.10422 15.9178 7.99974 14.5195 7.99974 14.5195C13.0986 13.6909 13.5442 10.4424 13.4165 8.59359C12.9071 9.23204 12.1269 9.65114 11.4799 9.67551C11.0163 9.69237 9.59349 8.24287 7.29905 10.5695C7.4269 9.29505 6.81726 8.45333 5.26735 8.02014C3.67698 7.57361 2.45756 9.72119 0.0342074 7.57422C-0.475633 14.3294 4.87723 14.5195 4.87723 14.5195C2.69669 26.5157 11.7766 32.6212 11.9328 33.3521C12.0893 34.0816 9.48036 34.8119 9.94958 35.5439C10.4194 36.2735 13.6025 36.1181 15.4815 35.7514C24.6123 38.1512 26.5898 38.6192 37.501 38.3621C46.2813 38.1522 46.1831 30.4268 45.9234 27.7086C45.4134 22.3656 44.0761 19.6284 38.7013 19.7853Z" fill="#00AEE0"/>
</g>
<defs>
<clipPath id="clip0">
<rect width="46" height="46" fill="white"/>
</clipPath>
</defs>
</svg>
