<svg xmlns="http://www.w3.org/2000/svg" viewBox="0 0 111.55 85.62"><defs><style>.acd706e9-cd5a-4677-bef7-34e17219305f{fill:#fff;}.ff7e2524-7b2a-4389-9f21-7b96217bc247{fill:#40bbd6;}.e32c5e24-c748-4412-bbae-5dc0bbb0b664{fill:#edd555;}.b4f76811-eb1d-4d67-9391-685f06c24147{fill:#9bcf68;}.aad4d095-8f52-436e-84c1-a5ffa0412d96{fill:#ff6c63;}</style></defs><g id="f3187cef-c140-4a59-96d6-3c724990bb2b" data-name="Capa 2"><g id="a19f5fc3-7d11-41cc-9cdd-c24158436fb3" data-name="Iconos"><g id="b2c91f74-eee5-488e-b2fe-bf12e51fe9b8" data-name="Wallet_Icon"><rect class="acd706e9-cd5a-4677-bef7-34e17219305f" x="0.02" width="111.5" height="85.62" rx="11.15"/><rect class="ff7e2524-7b2a-4389-9f21-7b96217bc247" x="6.04" y="5.97" width="99.56" height="31.86" rx="5.58"/><rect class="e32c5e24-c748-4412-bbae-5dc0bbb0b664" x="6.04" y="15.93" width="99.56" height="31.86" rx="5.58"/><rect class="b4f76811-eb1d-4d67-9391-685f06c24147" x="6.04" y="25.88" width="99.56" height="31.86" rx="5.58"/><rect class="aad4d095-8f52-436e-84c1-a5ffa0412d96" x="6.04" y="35.84" width="99.56" height="31.86" rx="5.58"/><path class="acd706e9-cd5a-4677-bef7-34e17219305f" d="M55.78,53.76a10,10,0,0,0,10-9.95c0-2,45.78,0,45.78,0V69.69c0,8.8-.17,15.93-9,15.93H8c-8.82,0-8-7.13-8-15.93V43.81s45.84-2,45.84,0A9.94,9.94,0,0,0,55.78,53.76Z"/></g></g></g></svg>