<?xml version="1.0" encoding="utf-8"?>
<!-- Generator: Adobe Illustrator 24.1.0, SVG Export Plug-In . SVG Version: 6.00 Build 0)  -->
<svg version="1.1" id="Capa_1" xmlns="http://www.w3.org/2000/svg" xmlns:xlink="http://www.w3.org/1999/xlink" x="0px" y="0px"
	 viewBox="0 0 400 400" style="enable-background:new 0 0 400 400;" xml:space="preserve">
<style type="text/css">
	.st0{fill:#9BCF68;}
	.st1{fill:#E76666;}
	.st2{fill:#F4CE6C;}
	.st3{fill:none;stroke:#393939;stroke-width:2.5;stroke-linecap:round;}
	.st4{fill:#393939;}
</style>
<g id="fb208981-ef9d-4460-8f54-b872295bd836">
	<g id="bb8930ce-8c23-4f0e-b31d-abf935a6b0b1">
		<path class="st0" d="M120.3,92.4c12.8-5.1,26.5-1.1,30.6,9.2c4.1,10.2-2.9,22.6-15.6,27.8c-12.8,5.1-26.5,1.1-30.6-9.2
			S107.5,97.6,120.3,92.4z"/>
		<path class="st0" d="M203,75c-13.8,0-24.9,8.9-24.9,19.9s11.2,20,24.9,20s24.9-8.9,24.9-20S216.8,75,203,75z"/>
		<path class="st0" d="M280.9,92.4c-12.8-5.1-26.5-1.1-30.6,9.2c-4.1,10.2,2.9,22.6,15.6,27.8c12.8,5.1,26.5,1.1,30.6-9.2
			S293.6,97.6,280.9,92.4z"/>
		<path class="st0" d="M280.9,92.4c-12.8-5.1-26.5-1.1-30.6,9.2c-4.1,10.2,2.9,22.6,15.6,27.8c12.8,5.1,26.5,1.1,30.6-9.2
			S293.6,97.6,280.9,92.4z"/>
		<path class="st0" d="M343.2,139.7c-9-10.4-23-13.1-31.4-5.9c-8.4,7.2-7.8,21.6,1.1,31.9c9,10.3,23,13.1,31.4,5.9
			C352.7,164.4,352.2,150.2,343.2,139.7z"/>
		<path class="st0" d="M59.6,139.7c9-10.4,23-13.1,31.4-5.9c8.4,7.2,7.8,21.6-1.1,31.9c-9,10.3-23,13.1-31.4,5.9
			C50.1,164.4,50.6,150.2,59.6,139.7z"/>
		<path class="st0" d="M379.1,213.3c-2.5-13.5-13.3-22.9-24.3-20.8s-17.4,14.6-14.9,28.1c2.5,13.5,13.3,22.9,24.3,20.8
			C375.2,239.4,381.7,226.9,379.1,213.3z"/>
		<path class="st0" d="M21.8,213.3c2.5-13.5,13.3-22.9,24.3-20.8s17.4,14.6,14.9,28.1s-13.5,22.9-24.3,20.8S19.3,226.9,21.8,213.3z"
			/>
		<path class="st1" d="M358.8,217.9c9,0,16.2,12.1,16.2,27c0,14.9-7.2,27-16.2,27s-16.2-12.1-16.2-27
			C342.6,230,349.9,217.9,358.8,217.9z"/>
		<path class="st1" d="M330.1,160.5c-8.1,4-9,18.1-2.3,31.4c6.7,13.3,18.6,20.8,26.6,16.8s9-18.1,2.3-31.4
			C350,164,338.1,156.5,330.1,160.5z"/>
		<path class="st1" d="M279.8,117.3c-5.4,7-0.5,20.2,11.3,29.3c11.7,9.2,25.7,10.9,31.2,3.9s0.5-20.2-11.2-29.4
			C299.3,112,285.3,110.3,279.8,117.3z"/>
		<path class="st1" d="M216.7,98.9c-1.9,8.7,8.3,18.4,22.8,21.6c14.5,3.2,27.9-1.2,29.8-9.9s-8.3-18.4-22.8-21.6
			S218.6,90.1,216.7,98.9z"/>
		<path class="st1" d="M183,98.9c1.9,8.7-8.3,18.4-22.8,21.6c-14.5,3.2-27.9-1.2-29.8-9.9c-1.9-8.7,8.3-18.4,22.8-21.6
			C167.7,85.8,181.1,90.1,183,98.9z"/>
		<path class="st1" d="M120.1,117.3c5.4,7,0.5,20.2-11.3,29.3c-11.7,9.2-25.7,10.9-31.2,3.9c-5.5-7.1-0.5-20.2,11.3-29.4
			S114.5,110.3,120.1,117.3z"/>
		<path class="st1" d="M68.6,160.5c8.1,4,9,18.1,2.3,31.4c-6.7,13.3-18.6,20.8-26.6,16.8s-9-18.1-2.3-31.4
			C48.7,164,60.6,156.5,68.6,160.5z"/>
		<path class="st1" d="M40.6,217.9c9,0,16.2,12.1,16.2,27c0,14.9-7.2,27-16.2,27s-16.2-12.1-16.2-27C24.4,230,31.7,217.9,40.6,217.9
			z"/>
		<path class="st2" d="M360.7,266.4c-2.9,12.6-14.1,21.5-27,21.6h-268c-12.9-0.1-24-9-27-21.6c-0.5-5-0.8-10-0.8-15
			c-0.1-84,72.4-152.1,161.7-152.1s161.8,68,161.8,152v0.2C361.5,256.4,361.2,261.4,360.7,266.4z"/>
		<path class="st3" d="M178.1,231.4c3.1,16.2,39.8,16.2,42.8,0"/>
		<path class="st4" d="M263.4,198.1c0,8.4-6.8,15.3-15.3,15.3c-8.4,0-15.3-6.8-15.3-15.3c0-8.4,6.8-15.3,15.3-15.3l0,0
			C256.6,182.8,263.4,189.7,263.4,198.1z"/>
		<path class="st4" d="M165.6,198.1c0,8.4-6.8,15.3-15.3,15.3c-8.4,0-15.3-6.8-15.3-15.3c0-8.4,6.8-15.3,15.3-15.3l0,0
			C158.7,182.8,165.6,189.7,165.6,198.1z"/>
	</g>
</g>
</svg>
