<svg width="236" height="116" viewBox="0 0 236 116" fill="none" xmlns="http://www.w3.org/2000/svg">
<path d="M13.5408 115.87C12.6587 115.87 11.953 115.623 11.4237 115.13C10.9238 114.609 10.6739 113.928 10.6739 113.087V89.6087H2.64641C0.882137 89.6087 0 88.8406 0 87.3043C0 85.7681 0.882137 85 2.64641 85H24.3911C26.1554 85 27.0375 85.7681 27.0375 87.3043C27.0375 88.8406 26.1554 89.6087 24.3911 89.6087H16.3636V113.087C16.3636 113.928 16.099 114.609 15.5697 115.13C15.0698 115.623 14.3935 115.87 13.5408 115.87Z" fill="white"/>
<path d="M35.8217 93.8696C38.8209 93.8696 41.041 94.6087 42.4818 96.087C43.952 97.5362 44.6871 99.7536 44.6871 102.739V113.348C44.6871 114.13 44.4519 114.754 43.9814 115.217C43.511 115.652 42.8641 115.87 42.0407 115.87C41.2762 115.87 40.644 115.638 40.1441 115.174C39.6737 114.71 39.4384 114.101 39.4384 113.348V112.391C38.9386 113.522 38.1446 114.406 37.0567 115.043C35.9981 115.681 34.7631 116 33.3517 116C31.9109 116 30.6024 115.71 29.4262 115.13C28.25 114.551 27.3237 113.754 26.6474 112.739C25.9711 111.725 25.633 110.594 25.633 109.348C25.633 107.783 26.0299 106.551 26.8239 105.652C27.6472 104.754 28.9704 104.101 30.7935 103.696C32.6166 103.29 35.1307 103.087 38.3358 103.087H39.4384V102.087C39.4384 100.667 39.1297 99.6377 38.5122 99C37.8947 98.3333 36.8949 98 35.5129 98C34.6602 98 33.7928 98.1304 32.9106 98.3913C32.0285 98.6232 30.9846 98.971 29.779 99.4348C29.0145 99.8116 28.4558 100 28.103 100C27.5737 100 27.1326 99.8116 26.7798 99.4348C26.4563 99.058 26.2946 98.5652 26.2946 97.9565C26.2946 97.4638 26.4122 97.0435 26.6474 96.6957C26.9121 96.3188 27.3384 95.971 27.9265 95.6522C28.9557 95.1014 30.176 94.6667 31.5874 94.3478C33.0282 94.029 34.4397 93.8696 35.8217 93.8696ZM34.4544 112.087C35.9246 112.087 37.1155 111.609 38.027 110.652C38.968 109.667 39.4384 108.406 39.4384 106.87V105.957H38.6445C36.6744 105.957 35.1454 106.043 34.0574 106.217C32.9694 106.391 32.1902 106.696 31.7197 107.13C31.2493 107.565 31.014 108.159 31.014 108.913C31.014 109.841 31.3375 110.609 31.9844 111.217C32.6607 111.797 33.484 112.087 34.4544 112.087Z" fill="white"/>
<path d="M59.8616 116C57.7151 116 55.8185 115.551 54.1718 114.652C52.5546 113.754 51.3049 112.478 50.4228 110.826C49.5406 109.174 49.0996 107.246 49.0996 105.043C49.0996 102.841 49.5553 100.899 50.4669 99.2174C51.4078 97.5072 52.7163 96.1884 54.3924 95.2609C56.0684 94.3333 57.9944 93.8696 60.1704 93.8696C61.3172 93.8696 62.4639 94.029 63.6107 94.3478C64.7869 94.6667 65.8161 95.1014 66.6982 95.6522C67.6391 96.2609 68.1096 97.029 68.1096 97.9565C68.1096 98.5942 67.9479 99.1159 67.6244 99.5217C67.3304 99.8986 66.9334 100.087 66.4336 100.087C66.1101 100.087 65.7719 100.014 65.4191 99.8696C65.0662 99.7246 64.7134 99.5507 64.3605 99.3478C63.7136 98.971 63.0961 98.6812 62.508 98.4783C61.9199 98.2464 61.2436 98.1304 60.4791 98.1304C58.656 98.1304 57.2446 98.7246 56.2449 99.913C55.2745 101.072 54.7893 102.754 54.7893 104.957C54.7893 107.13 55.2745 108.812 56.2449 110C57.2446 111.159 58.656 111.739 60.4791 111.739C61.2142 111.739 61.8611 111.638 62.4198 111.435C63.0079 111.203 63.6548 110.899 64.3605 110.522C64.8016 110.261 65.1839 110.072 65.5073 109.957C65.8308 109.812 66.1542 109.739 66.4777 109.739C66.9481 109.739 67.3451 109.942 67.6685 110.348C67.992 110.754 68.1537 111.261 68.1537 111.87C68.1537 112.362 68.0361 112.797 67.8009 113.174C67.595 113.522 67.2422 113.841 66.7423 114.13C65.8308 114.71 64.7722 115.174 63.5666 115.522C62.361 115.841 61.126 116 59.8616 116Z" fill="white"/>
<path d="M81.6628 116C79.4575 116 77.5168 115.551 75.8407 114.652C74.1941 113.754 72.915 112.464 72.0034 110.783C71.0919 109.101 70.6361 107.145 70.6361 104.913C70.6361 102.681 71.0919 100.739 72.0034 99.087C72.915 97.4058 74.1941 96.1159 75.8407 95.2174C77.5168 94.3188 79.4575 93.8696 81.6628 93.8696C83.8682 93.8696 85.7942 94.3188 87.4408 95.2174C89.1169 96.1159 90.396 97.4058 91.2781 99.087C92.1897 100.739 92.6454 102.681 92.6454 104.913C92.6454 107.145 92.1897 109.101 91.2781 110.783C90.396 112.464 89.1169 113.754 87.4408 114.652C85.7942 115.551 83.8682 116 81.6628 116ZM81.6187 111.783C83.4124 111.783 84.7797 111.203 85.7207 110.043C86.6616 108.884 87.1321 107.174 87.1321 104.913C87.1321 102.681 86.6616 100.986 85.7207 99.8261C84.7797 98.6377 83.4271 98.0435 81.6628 98.0435C79.8986 98.0435 78.5312 98.6377 77.5609 99.8261C76.6199 100.986 76.1495 102.681 76.1495 104.913C76.1495 107.174 76.6199 108.884 77.5609 110.043C78.5018 111.203 79.8544 111.783 81.6187 111.783Z" fill="white"/>
<path d="M109.723 93.8696C112.311 93.8696 114.237 94.5942 115.501 96.0435C116.766 97.4928 117.398 99.6812 117.398 102.609V113.304C117.398 114.116 117.148 114.754 116.648 115.217C116.178 115.681 115.516 115.913 114.663 115.913C113.811 115.913 113.134 115.681 112.634 115.217C112.135 114.754 111.885 114.116 111.885 113.304V102.913C111.885 101.261 111.561 100.058 110.914 99.3043C110.297 98.5507 109.312 98.1739 107.959 98.1739C106.371 98.1739 105.092 98.6667 104.122 99.6522C103.181 100.638 102.71 101.957 102.71 103.609V113.304C102.71 114.116 102.46 114.754 101.961 115.217C101.461 115.681 100.784 115.913 99.9317 115.913C99.079 115.913 98.4026 115.681 97.9028 115.217C97.4323 114.754 97.1971 114.116 97.1971 113.304V96.4783C97.1971 95.7246 97.447 95.1159 97.9469 94.6522C98.4468 94.1884 99.1231 93.9565 99.9758 93.9565C100.74 93.9565 101.358 94.1884 101.828 94.6522C102.328 95.087 102.578 95.6667 102.578 96.3913V97.5652C103.313 96.3768 104.298 95.4638 105.533 94.8261C106.768 94.1884 108.165 93.8696 109.723 93.8696Z" fill="white"/>
<path d="M132.834 116C130.628 116 128.688 115.551 127.012 114.652C125.365 113.754 124.086 112.464 123.174 110.783C122.263 109.101 121.807 107.145 121.807 104.913C121.807 102.681 122.263 100.739 123.174 99.087C124.086 97.4058 125.365 96.1159 127.012 95.2174C128.688 94.3188 130.628 93.8696 132.834 93.8696C135.039 93.8696 136.965 94.3188 138.612 95.2174C140.288 96.1159 141.567 97.4058 142.449 99.087C143.361 100.739 143.816 102.681 143.816 104.913C143.816 107.145 143.361 109.101 142.449 110.783C141.567 112.464 140.288 113.754 138.612 114.652C136.965 115.551 135.039 116 132.834 116ZM132.79 111.783C134.583 111.783 135.951 111.203 136.892 110.043C137.832 108.884 138.303 107.174 138.303 104.913C138.303 102.681 137.832 100.986 136.892 99.8261C135.951 98.6377 134.598 98.0435 132.834 98.0435C131.069 98.0435 129.702 98.6377 128.732 99.8261C127.791 100.986 127.32 102.681 127.32 104.913C127.32 107.174 127.791 108.884 128.732 110.043C129.673 111.203 131.025 111.783 132.79 111.783Z" fill="white"/>
<path d="M173.994 93.8696C176.346 93.8696 178.14 94.5652 179.375 95.9565C180.639 97.3188 181.272 99.5362 181.272 102.609V113.304C181.272 114.145 181.007 114.797 180.478 115.261C179.978 115.696 179.316 115.913 178.493 115.913C177.699 115.913 177.037 115.696 176.508 115.261C176.008 114.797 175.758 114.145 175.758 113.304V102.609C175.758 101.014 175.464 99.8841 174.876 99.2174C174.317 98.5217 173.45 98.1739 172.274 98.1739C170.833 98.1739 169.686 98.6667 168.833 99.6522C167.981 100.609 167.554 101.928 167.554 103.609V113.304C167.554 114.145 167.29 114.797 166.76 115.261C166.261 115.696 165.614 115.913 164.82 115.913C164.026 115.913 163.364 115.696 162.835 115.261C162.306 114.797 162.041 114.145 162.041 113.304V102.609C162.041 101.014 161.747 99.8841 161.159 99.2174C160.6 98.5217 159.733 98.1739 158.557 98.1739C157.116 98.1739 155.969 98.6667 155.116 99.6522C154.293 100.609 153.881 101.928 153.881 103.609V113.304C153.881 114.145 153.617 114.797 153.087 115.261C152.558 115.696 151.896 115.913 151.103 115.913C150.309 115.913 149.647 115.696 149.118 115.261C148.618 114.797 148.368 114.145 148.368 113.304V96.4783C148.368 95.6667 148.633 95.0435 149.162 94.6087C149.691 94.1739 150.353 93.9565 151.147 93.9565C151.911 93.9565 152.529 94.1739 152.999 94.6087C153.499 95.0145 153.749 95.6087 153.749 96.3913V97.4348C154.425 96.2754 155.322 95.3913 156.439 94.7826C157.586 94.1739 158.895 93.8696 160.365 93.8696C163.599 93.8696 165.761 95.2029 166.849 97.8696C167.496 96.6522 168.451 95.6812 169.716 94.9565C170.98 94.2319 172.406 93.8696 173.994 93.8696Z" fill="white"/>
<path d="M207.539 116C205.392 116 203.496 115.551 201.849 114.652C200.232 113.754 198.982 112.478 198.1 110.826C197.218 109.174 196.777 107.246 196.777 105.043C196.777 102.841 197.232 100.899 198.144 99.2174C199.085 97.5072 200.393 96.1884 202.069 95.2609C203.745 94.3333 205.671 93.8696 207.847 93.8696C208.994 93.8696 210.141 94.029 211.288 94.3478C212.464 94.6667 213.493 95.1014 214.375 95.6522C215.316 96.2609 215.787 97.029 215.787 97.9565C215.787 98.5942 215.625 99.1159 215.301 99.5217C215.007 99.8986 214.61 100.087 214.111 100.087C213.787 100.087 213.449 100.014 213.096 99.8696C212.743 99.7246 212.39 99.5507 212.038 99.3478C211.391 98.971 210.773 98.6812 210.185 98.4783C209.597 98.2464 208.921 98.1304 208.156 98.1304C206.333 98.1304 204.922 98.7246 203.922 99.913C202.952 101.072 202.466 102.754 202.466 104.957C202.466 107.13 202.952 108.812 203.922 110C204.922 111.159 206.333 111.739 208.156 111.739C208.891 111.739 209.538 111.638 210.097 111.435C210.685 111.203 211.332 110.899 212.038 110.522C212.479 110.261 212.861 110.072 213.184 109.957C213.508 109.812 213.831 109.739 214.155 109.739C214.625 109.739 215.022 109.942 215.346 110.348C215.669 110.754 215.831 111.261 215.831 111.87C215.831 112.362 215.713 112.797 215.478 113.174C215.272 113.522 214.919 113.841 214.419 114.13C213.508 114.71 212.449 115.174 211.244 115.522C210.038 115.841 208.803 116 207.539 116Z" fill="white"/>
<path d="M226.87 116C223.665 116 221.077 115.377 219.107 114.13C218.166 113.58 217.696 112.797 217.696 111.783C217.696 111.203 217.857 110.739 218.181 110.391C218.504 110.014 218.901 109.826 219.372 109.826C219.872 109.826 220.563 110.058 221.445 110.522C222.386 110.957 223.238 111.29 224.003 111.522C224.797 111.754 225.797 111.87 227.002 111.87C228.237 111.87 229.193 111.667 229.869 111.261C230.575 110.855 230.928 110.29 230.928 109.565C230.928 109.072 230.781 108.681 230.487 108.391C230.222 108.101 229.722 107.841 228.987 107.609C228.281 107.348 227.193 107.058 225.723 106.739C223.106 106.217 221.224 105.478 220.077 104.522C218.96 103.565 218.401 102.246 218.401 100.565C218.401 99.2899 218.784 98.1449 219.548 97.1304C220.313 96.087 221.357 95.2899 222.68 94.7391C224.032 94.1594 225.561 93.8696 227.267 93.8696C228.502 93.8696 229.693 94.029 230.839 94.3478C231.986 94.6377 233.015 95.0725 233.927 95.6522C234.868 96.2319 235.338 97 235.338 97.9565C235.338 98.5362 235.177 99.029 234.853 99.4348C234.53 99.8116 234.133 100 233.662 100C233.339 100 233.015 99.942 232.692 99.8261C232.398 99.6812 232.016 99.4783 231.545 99.2174C230.692 98.7826 229.957 98.4638 229.34 98.2609C228.722 98.029 227.958 97.913 227.046 97.913C225.958 97.913 225.091 98.1304 224.444 98.5652C223.826 99 223.518 99.5942 223.518 100.348C223.518 101.072 223.841 101.623 224.488 102C225.135 102.377 226.385 102.754 228.237 103.13C230.207 103.536 231.751 104 232.868 104.522C233.986 105.043 234.78 105.696 235.25 106.478C235.75 107.261 236 108.261 236 109.478C236 111.449 235.162 113.029 233.486 114.217C231.839 115.406 229.634 116 226.87 116Z" fill="white"/>
<path d="M185.249 95.7649C185.249 95.1868 185.688 94.7182 186.229 94.7182H193.09C193.631 94.7182 194.07 95.1868 194.07 95.7649V114.605C194.07 115.184 193.631 115.652 193.09 115.652H186.229C185.688 115.652 185.249 115.184 185.249 114.605V95.7649Z" fill="white"/>
<path d="M188.749 87.6713C188.765 87.512 188.891 87.3913 189.041 87.3913H190.278C190.428 87.3913 190.554 87.512 190.57 87.6713L191.094 92.8001C191.113 92.9859 190.977 93.1481 190.802 93.1481H188.517C188.342 93.1481 188.206 92.9859 188.225 92.8001L188.749 87.6713Z" fill="white"/>
<path d="M186.229 92.9388C186.229 92.7654 186.361 92.6248 186.523 92.6248H192.796C192.958 92.6248 193.09 92.7654 193.09 92.9388V94.4042C193.09 94.5776 192.958 94.7182 192.796 94.7182H186.523C186.361 94.7182 186.229 94.5776 186.229 94.4042V92.9388Z" fill="white"/>
<path d="M186.229 92.9388C186.229 92.7654 186.361 92.6248 186.523 92.6248H192.796C192.958 92.6248 193.09 92.7654 193.09 92.9388V94.4042C193.09 94.5776 192.958 94.7182 192.796 94.7182H186.523C186.361 94.7182 186.229 94.5776 186.229 94.4042V92.9388Z" fill="white"/>
<path d="M88.7541 6.4581C93.4874 4.54836 98.5631 6.06979 100.091 9.85629C101.619 13.6428 99.0202 18.2605 94.2869 20.1703C89.5536 22.08 84.478 20.5586 82.9501 16.7721C81.4223 12.9856 84.0208 8.36784 88.7541 6.4581Z" fill="#9BCF68"/>
<path d="M119.425 3.17527e-09C114.321 0.000118385 110.184 3.31024 110.184 7.39337C110.184 11.4765 114.321 14.7864 119.425 14.7863C124.529 14.7862 128.667 11.4761 128.667 7.39294C128.667 3.30981 124.529 -0.000118379 119.425 3.17527e-09Z" fill="#9BCF68"/>
<path d="M148.287 6.4581C143.554 4.54836 138.478 6.06979 136.95 9.85629C135.422 13.6428 138.021 18.2605 142.754 20.1703C147.487 22.08 152.563 20.5586 154.091 16.7721C155.619 12.9856 153.02 8.36784 148.287 6.4581Z" fill="#9BCF68"/>
<path d="M148.287 6.4581C143.554 4.54836 138.478 6.06979 136.95 9.85629C135.422 13.6428 138.021 18.2605 142.754 20.1703C147.487 22.08 152.563 20.5586 154.091 16.7721C155.619 12.9856 153.02 8.36784 148.287 6.4581Z" fill="#9BCF68"/>
<path d="M171.422 24.0099C168.096 20.1385 162.889 19.1572 159.791 21.8181C156.694 24.4789 156.88 29.7743 160.206 33.6456C163.533 37.517 168.74 38.4983 171.837 35.8375C174.934 33.1766 174.748 27.8812 171.422 24.0099Z" fill="#9BCF68"/>
<path d="M66.2064 24.0099C69.5326 20.1385 74.7397 19.1572 77.8368 21.8181C80.9339 24.4789 80.7481 29.7743 77.4219 33.6456C74.0956 37.517 68.8885 38.4983 65.7915 35.8375C62.6944 33.1766 62.8802 27.8812 66.2064 24.0099Z" fill="#9BCF68"/>
<path d="M184.732 51.3112C183.797 46.2936 179.784 42.8328 175.77 43.5813C171.756 44.3297 169.261 49.0039 170.197 54.0215C171.132 59.039 175.145 62.4998 179.159 61.7514C183.173 61.0029 185.668 56.3287 184.732 51.3112Z" fill="#9BCF68"/>
<path d="M52.1965 51.3112C53.1322 46.2936 57.1447 42.8328 61.1586 43.5813C65.1726 44.3297 67.668 49.0039 66.7323 54.0215C65.7966 59.039 61.7842 62.4998 57.7702 61.7514C53.7563 61.0029 51.2608 56.3287 52.1965 51.3112Z" fill="#9BCF68"/>
<path d="M177.184 52.9998C180.497 52.9998 183.184 57.477 183.184 62.9998C183.184 68.5227 180.497 72.9998 177.184 72.9998C173.87 72.9998 171.184 68.5227 171.184 62.9998C171.184 57.477 173.87 52.9998 177.184 52.9998Z" fill="#E76666"/>
<path d="M166.54 31.7044C163.582 33.198 163.202 38.4054 165.691 43.3354C168.181 48.2653 172.597 51.051 175.555 49.5574C178.513 48.0637 178.892 42.8563 176.403 37.9264C173.914 32.9964 169.498 30.2107 166.54 31.7044Z" fill="#E76666"/>
<path d="M147.894 15.685C145.852 18.2947 147.723 23.1693 152.072 26.5729C156.422 29.9765 161.603 30.6201 163.645 28.0104C165.687 25.4008 163.817 20.5261 159.467 17.1225C155.118 13.7189 149.937 13.0753 147.894 15.685Z" fill="#E76666"/>
<path d="M124.491 8.8556C123.769 12.0897 127.553 15.6871 132.943 16.8908C138.333 18.0945 143.288 16.4486 144.011 13.2145C144.733 9.98045 140.949 6.38296 135.559 5.17929C130.169 3.97561 125.214 5.62155 124.491 8.8556Z" fill="#E76666"/>
<path d="M112.011 8.8556C112.733 12.0897 108.949 15.6871 103.559 16.8908C98.1686 18.0945 93.2136 16.4486 92.4914 13.2145C91.7691 9.98045 95.5532 6.38296 100.943 5.17929C106.333 3.97561 111.288 5.62155 112.011 8.8556Z" fill="#E76666"/>
<path d="M88.6451 15.685C90.6872 18.2947 88.8168 23.1693 84.4674 26.5729C80.1179 29.9765 74.9366 30.6201 72.8944 28.0104C70.8523 25.4008 72.7227 20.5261 77.0721 17.1225C81.4215 13.7189 86.6029 13.0753 88.6451 15.685Z" fill="#E76666"/>
<path d="M69.5546 31.7044C72.5126 33.198 72.8924 38.4054 70.403 43.3354C67.9136 48.2653 63.4976 51.051 60.5396 49.5574C57.5816 48.0637 57.2018 42.8563 59.6912 37.9264C62.1806 32.9964 66.5966 30.2107 69.5546 31.7044Z" fill="#E76666"/>
<path d="M59.1837 52.9998C62.4974 52.9998 65.1837 57.477 65.1837 62.9998C65.1837 68.5227 62.4974 72.9998 59.1837 72.9998C55.87 72.9998 53.1837 68.5227 53.1837 62.9998C53.1837 57.477 55.87 52.9998 59.1837 52.9998Z" fill="#E76666"/>
<path d="M177.894 70.9678C176.799 75.5771 172.73 78.9999 167.878 78.9999H68.4893C63.6374 78.9999 59.5687 75.5772 58.4737 70.968C58.2819 69.1327 58.1837 67.2715 58.1837 65.3888C58.1837 34.2461 85.0466 8.99988 118.184 8.99988C151.31 8.99988 178.167 34.2303 178.184 65.3596C178.184 65.3694 178.184 65.3791 178.184 65.3888C178.184 65.3985 178.184 65.4083 178.184 65.418C178.183 67.2907 178.085 69.1421 177.894 70.9678Z" fill="#F4CE6C"/>
<path d="M110.184 57.9695C111.318 64.0176 124.926 64.0176 126.06 57.9695" stroke="#393939" stroke-width="2.5" stroke-linecap="round"/>
<path d="M141.813 45.67C141.813 48.8016 139.274 51.3402 136.143 51.3402C133.011 51.3402 130.473 48.8016 130.473 45.67C130.473 42.5385 133.011 39.9999 136.143 39.9999C139.274 39.9999 141.813 42.5385 141.813 45.67Z" fill="#393939"/>
<path d="M105.524 45.67C105.524 48.8016 102.985 51.3402 99.8538 51.3402C96.7223 51.3402 94.1837 48.8016 94.1837 45.67C94.1837 42.5385 96.7223 39.9999 99.8538 39.9999C102.985 39.9999 105.524 42.5385 105.524 45.67Z" fill="#393939"/>
</svg>
