<svg width="319" height="319" viewBox="0 0 319 319" fill="none" xmlns="http://www.w3.org/2000/svg">
<path d="M210.062 84.535C222.662 99.209 229.202 116.913 235.103 134.937C241.005 152.96 246.428 171.143 248.023 195.068C249.777 219.153 247.863 248.66 232.392 257.273C217.08 265.886 188.21 253.445 167.954 241.802C147.538 230.158 135.735 219.312 117.871 211.656C100.166 203.841 76.56 198.896 60.61 183.744C44.8195 168.432 36.685 142.752 45.617 124.729C54.549 106.705 80.388 96.4975 102.24 84.854C124.091 73.051 141.796 59.8125 160.138 59.015C178.321 58.2175 197.302 69.861 210.062 84.535Z" fill="#FACB70"/>
</svg>
