<svg width="255" height="270" viewBox="0 0 255 270" fill="none" xmlns="http://www.w3.org/2000/svg">
<path d="M180.54 56.1599C195.968 69.5249 208.08 86.3999 216.367 106.11C224.655 125.955 229.245 148.77 220.192 163.35C211.14 177.93 188.445 184.275 170.723 196.425C153 208.575 140.25 226.395 121.763 234.765C103.275 243.135 78.9225 242.19 61.5825 229.905C44.115 217.755 33.66 194.265 29.325 171.045C25.1175 147.69 27.03 124.335 37.1025 107.595C47.0475 90.8549 65.1525 80.5949 81.4725 67.4999C97.92 54.5399 112.71 38.6099 129.54 35.6399C146.37 32.8049 165.113 42.7949 180.54 56.1599Z" fill="#FF6C63"/>
</svg>
